<svg id="Capa_1" enable-background="new 0 0 512 512" height="512" viewBox="0 0 512 512" width="512" xmlns="http://www.w3.org/2000/svg"><g><g><path d="m444.532 7.5h-377.063c-7.668 0-13.884 6.216-13.884 13.884v390.533l50.637 46.292 36.866 46.292h303.443c7.668 0 13.884-6.216 13.884-13.884v-469.233c0-7.668-6.216-13.884-13.883-13.884z" fill="#faf7f8"/><path d="m444.532 7.5h-22.432c7.668 0 13.884 6.216 13.884 13.884v469.233c0 7.668-6.216 13.884-13.884 13.884h22.432c7.668 0 13.884-6.216 13.884-13.884v-469.233c-.001-7.668-6.217-13.884-13.884-13.884z" fill="#e5eef9"/><path d="m141.088 504.5h-8.296c-43.745 0-79.207-35.462-79.207-79.207v-13.377c19.971 6.523 39.72 8.329 59.279 6.11 17.856-2.026 32.022 14.777 27.279 32.11-5.219 19.078-5.677 37.333.945 54.364z" fill="#e5eef9"/><g><path d="m167.831 108.121 22.729-13.124c.194-1.646.305-3.318.305-5.016 0-14.204-6.985-26.769-17.699-34.472l-.071.358-30.732.546-13.577 18.852-19.608-1.442c-2.053 4.982-3.193 10.436-3.193 16.159 0 21.227 15.585 38.814 35.936 41.944z" fill="#b7efff"/><g fill="#5de1c4"><path d="m148.425 47.541c-17.716 0-32.891 10.859-39.247 26.281 6.543 8.927 16.506 18.949 26.565 15.433 17.197-6.011 3.309-22.361 37.352-33.388.135-.044.257-.088.389-.132-7.024-5.148-15.684-8.194-25.059-8.194z"/><path d="m155.27 100.611c-11.254 8.316-13.559 21.284-13.349 31.315 2.12.326 4.292.496 6.504.496 21.741 0 39.652-16.351 42.135-37.424-11.776-4.113-26.5-.882-35.29 5.613z"/></g></g><path d="m399.01 209.114-148.585 40.086-137.433-40.086v-39.814c0-3.906 3.166-7.072 7.072-7.072h271.874c3.906 0 7.072 3.166 7.072 7.072z" fill="#82aee3"/><path d="m198.021 343.311h-77.957c-3.906 0-7.072-3.166-7.072-7.072v-127.125h85.03l56.953 63.866z" fill="#988393"/><path d="m391.937 343.311h-193.916v-134.197h200.989v127.124c0 3.906-3.167 7.073-7.073 7.073z" fill="#ad9ca9"/><path d="m394.606 106.495h-166.925c-2.432 0-4.404-1.972-4.404-4.404v-24.22c0-2.432 1.972-4.404 4.404-4.404h166.924c2.432 0 4.404 1.972 4.404 4.404v24.22c0 2.433-1.971 4.404-4.403 4.404z" fill="#6c5e69"/><path d="m394.606 73.468h-19.204c2.432 0 4.404 1.972 4.404 4.404v24.22c0 2.432-1.972 4.404-4.404 4.404h19.204c2.432 0 4.404-1.972 4.404-4.404v-24.22c0-2.433-1.972-4.404-4.404-4.404z" fill="#574d56"/></g><g><path d="m148.425 40.041c-27.494 0-49.94 22.365-49.94 49.94 0 27.552 22.42 49.94 49.94 49.94 27.537 0 49.94-22.403 49.94-49.94 0-27.535-22.402-49.94-49.94-49.94zm0 15c2.315 0 4.578.227 6.768.659-9.053 5.694-12.545 12.235-15.383 18.978-1.87 4.445-2.57 6.108-6.544 7.497-3.753 1.315-9.336-2.122-15.309-9.285 5.995-10.644 17.405-17.849 30.468-17.849zm-34.941 34.94c0-.082.001-.163.002-.244 6.804 5.832 12.912 7.75 18.002 7.75 2.501 0 4.757-.463 6.729-1.152 10.265-3.588 13.123-10.381 15.42-15.839 2.425-5.763 4.725-11.228 18.34-16.303 6.036 5.517 10.135 13.12 11.145 21.656-11.207-.96-23.448 2.182-32.309 8.729-8.742 6.46-14.114 15.91-15.816 27.66-12.621-5.273-21.513-17.746-21.513-32.257zm36.282 34.915c1.047-8.009 4.382-14.132 9.96-18.254 5.088-3.76 13.718-6.558 21.94-5.889-4.419 13.606-16.976 23.577-31.9 24.143z"/><path d="m105.491 169.301v166.938c0 8.035 6.537 14.572 14.572 14.572h271.874c8.035 0 14.572-6.537 14.572-14.572v-59.319c0-4.143-3.357-7.5-7.5-7.5s-7.5 3.357-7.5 7.5v58.891h-185.988v-119.197h185.989v31.306c0 4.143 3.357 7.5 7.5 7.5s7.5-3.357 7.5-7.5v-78.619c0-8.035-6.537-14.572-14.572-14.572h-271.875c-8.035 0-14.572 6.537-14.572 14.572zm85.03 166.51h-70.029v-119.197h70.029zm-70.03-166.082h271.019v31.886h-271.019z"/><path d="m334.84 185.671c0-4.143-3.357-7.5-7.5-7.5h-142.679c-4.143 0-7.5 3.357-7.5 7.5s3.357 7.5 7.5 7.5h142.679c4.142 0 7.5-3.358 7.5-7.5z"/><path d="m267.915 451.384c4.143 0 7.5-3.357 7.5-7.5v-1.051c6.827-2.614 12.003-8.666 13.276-16.242 1.611-9.585-3.573-18.239-12.9-21.536-4.121-1.457-9.182-3.388-11.696-5.35-.125-.173-.357-1.053.035-2.213.207-.609.729-1.684 1.91-2.039 5.543-1.671 10.94.512 11.164.604 3.765 1.648 8.167-.043 9.854-3.804 1.693-3.78.002-8.217-3.778-9.911-.565-.253-3.566-1.529-7.902-2.164-.378-3.789-3.574-6.747-7.463-6.747-4.143 0-7.5 3.357-7.5 7.5v.606c-5.75 2.238-9.977 7.391-11.175 13.746-1.197 6.354.927 12.55 5.545 16.173 4.248 3.331 10.203 5.688 16.007 7.74 2.463.87 3.508 2.521 3.107 4.907-.318 1.891-1.946 5.099-6.033 5.126-4.554.032-5.518-.121-8.787-2.26-3.464-2.267-8.113-1.296-10.382 2.171-2.268 3.466-1.296 8.114 2.171 10.382 3.59 2.348 6.463 3.567 9.547 4.17v.19c0 4.144 3.357 7.502 7.5 7.502z"/><path d="m382.975 389.508h-68.257c-4.143 0-7.5 3.357-7.5 7.5s3.357 7.5 7.5 7.5h68.257c4.143 0 7.5-3.357 7.5-7.5s-3.358-7.5-7.5-7.5z"/><path d="m382.975 420.308h-68.257c-4.143 0-7.5 3.357-7.5 7.5s3.357 7.5 7.5 7.5h68.257c4.143 0 7.5-3.357 7.5-7.5s-3.358-7.5-7.5-7.5z"/><path d="m143.343 248.703h24.326c4.143 0 7.5-3.357 7.5-7.5s-3.357-7.5-7.5-7.5h-24.326c-4.143 0-7.5 3.357-7.5 7.5s3.357 7.5 7.5 7.5z"/><path d="m143.343 283.712h24.326c4.143 0 7.5-3.357 7.5-7.5s-3.357-7.5-7.5-7.5h-24.326c-4.143 0-7.5 3.357-7.5 7.5s3.357 7.5 7.5 7.5z"/><path d="m143.343 318.722h24.326c4.143 0 7.5-3.357 7.5-7.5s-3.357-7.5-7.5-7.5h-24.326c-4.143 0-7.5 3.357-7.5 7.5s3.357 7.5 7.5 7.5z"/><path d="m369.836 233.703h-142.642c-4.143 0-7.5 3.357-7.5 7.5s3.357 7.5 7.5 7.5h142.642c4.143 0 7.5-3.357 7.5-7.5s-3.357-7.5-7.5-7.5z"/><path d="m369.836 268.712h-142.642c-4.143 0-7.5 3.357-7.5 7.5s3.357 7.5 7.5 7.5h142.642c4.143 0 7.5-3.357 7.5-7.5s-3.357-7.5-7.5-7.5z"/><path d="m369.836 303.722h-142.642c-4.143 0-7.5 3.357-7.5 7.5s3.357 7.5 7.5 7.5h142.642c4.143 0 7.5-3.357 7.5-7.5s-3.357-7.5-7.5-7.5z"/><path d="m444.531 0h-377.062c-11.791 0-21.384 9.593-21.384 21.384v308.189c0 4.143 3.357 7.5 7.5 7.5s7.5-3.357 7.5-7.5v-308.189c0-3.521 2.864-6.384 6.384-6.384h377.062c3.52 0 6.384 2.863 6.384 6.384v469.232c0 3.521-2.864 6.384-6.384 6.384h-298.096c-3.986-13.286-3.669-28.029.943-44.885 2.902-10.605.362-21.925-6.793-30.278-7.091-8.277-17.766-12.486-28.566-11.263-17.129 1.941-34.239.525-50.934-4.21v-47.791c0-4.143-3.357-7.5-7.5-7.5s-7.5 3.357-7.5 7.5v66.72c0 47.811 38.896 86.707 86.707 86.707h311.739c11.791 0 21.384-9.593 21.384-21.384v-469.232c0-11.791-9.593-21.384-21.384-21.384zm-383.446 425.293v-3.398c17.28 4.383 34.935 5.591 52.625 3.584 5.928-.674 11.576 1.557 15.482 6.117 3.974 4.638 5.328 10.674 3.717 16.561-4.901 17.915-5.578 33.992-2.018 48.819-38.664-1.012-69.806-32.78-69.806-71.683z"/><path d="m284.016 80.968c4.143 0 7.5-3.357 7.5-7.5s-3.357-7.5-7.5-7.5h-56.334c-6.564 0-11.904 5.34-11.904 11.903v24.221c0 6.563 5.34 11.903 11.904 11.903h166.924c6.564 0 11.904-5.34 11.904-11.903v-24.221c0-6.563-5.34-11.903-11.904-11.903h-81.59c-4.143 0-7.5 3.357-7.5 7.5s3.357 7.5 7.5 7.5h78.494v18.027h-160.733v-18.027z"/></g></g></svg>