<svg id="Capa_1" enable-background="new 0 0 512 512" height="512" viewBox="0 0 512 512" width="512" xmlns="http://www.w3.org/2000/svg"><g><g><path d="m444.531 7.497h-377.062c-7.668 0-13.884 6.216-13.884 13.884v390.533l50.637 46.292 36.866 46.292h303.443c7.668 0 13.884-6.216 13.884-13.884v-469.233c0-7.668-6.216-13.884-13.884-13.884z" fill="#faf7f8"/><path d="m444.531 7.497h-22.431c7.668 0 13.884 6.216 13.884 13.884v469.233c0 7.668-6.216 13.884-13.884 13.884h22.432c7.668 0 13.884-6.216 13.884-13.884v-469.233c-.001-7.668-6.217-13.884-13.885-13.884z" fill="#e5eef9"/><path d="m141.088 504.497h-8.296c-43.745 0-79.207-35.462-79.207-79.207v-13.377c19.971 6.523 39.72 8.329 59.279 6.11 17.856-2.026 32.022 14.777 27.279 32.11-5.219 19.078-5.677 37.333.945 54.364z" fill="#e5eef9"/><g><path d="m167.831 108.118 22.729-13.124c.194-1.646.305-3.318.305-5.016 0-14.204-6.985-26.769-17.699-34.472l-.071.358-30.732.546-13.577 18.852-19.608-1.442c-2.053 4.982-3.193 10.436-3.193 16.159 0 21.227 15.585 38.814 35.936 41.944z" fill="#b7efff"/><g fill="#5de1c4"><path d="m148.424 47.538c-17.716 0-32.891 10.859-39.247 26.281 6.543 8.927 16.506 18.949 26.565 15.433 17.197-6.011 3.309-22.361 37.352-33.388.135-.044.257-.088.389-.132-7.023-5.148-15.683-8.194-25.059-8.194z"/><path d="m155.27 100.608c-11.254 8.316-13.559 21.284-13.349 31.315 2.12.326 4.292.496 6.504.496 21.741 0 39.652-16.351 42.135-37.424-11.776-4.113-26.5-.883-35.29 5.613z"/></g></g><path d="m394.606 106.492h-166.925c-2.432 0-4.404-1.972-4.404-4.404v-24.22c0-2.432 1.972-4.404 4.404-4.404h166.924c2.432 0 4.404 1.972 4.404 4.404v24.22c0 2.433-1.971 4.404-4.403 4.404z" fill="#6c5e69"/><path d="m394.606 73.465h-19.204c2.432 0 4.404 1.972 4.404 4.404v24.22c0 2.432-1.972 4.404-4.404 4.404h19.204c2.432 0 4.404-1.972 4.404-4.404v-24.22c-.001-2.433-1.972-4.404-4.404-4.404z" fill="#574d56"/><g><path d="m380.25 275.942-121.929-32.35-126.571 32.35v26.203c0 4.083 3.31 7.393 7.393 7.393h233.713c4.083 0 7.393-3.31 7.393-7.393v-26.203z" fill="#0ed2b3"/><path d="m380.25 275.942h-248.5v-104.682c0-3.722 3.018-6.74 6.74-6.74h235.02c3.722 0 6.74 3.018 6.74 6.74z" fill="#5de1c4"/></g></g><g><path d="m148.425 40.041c-27.493 0-49.94 22.361-49.94 49.94 0 27.552 22.42 49.94 49.94 49.94 27.537 0 49.94-22.403 49.94-49.94 0-27.492-22.362-49.94-49.94-49.94zm0 15c2.315 0 4.578.227 6.768.659-9.053 5.694-12.545 12.235-15.383 18.978-1.87 4.445-2.57 6.108-6.543 7.497-3.755 1.312-9.337-2.122-15.31-9.285 5.995-10.644 17.405-17.849 30.468-17.849zm-34.941 34.94c0-.082.001-.163.002-.244 6.804 5.832 12.912 7.75 18.002 7.75 2.501 0 4.757-.463 6.729-1.152 10.265-3.588 13.123-10.381 15.42-15.839 2.425-5.762 4.725-11.228 18.34-16.303 6.036 5.517 10.135 13.12 11.145 21.656-11.207-.96-23.448 2.182-32.309 8.729-8.741 6.46-14.114 15.91-15.816 27.66-12.621-5.273-21.513-17.746-21.513-32.257zm36.282 34.915c1.047-8.009 4.382-14.132 9.96-18.254 5.088-3.761 13.718-6.56 21.94-5.89-4.418 13.607-16.975 23.578-31.9 24.144z"/><path d="m444.531 0h-377.062c-11.791 0-21.384 9.593-21.384 21.384v308.189c0 4.143 3.357 7.5 7.5 7.5s7.5-3.357 7.5-7.5v-308.189c0-3.521 2.864-6.384 6.384-6.384h377.062c3.52 0 6.384 2.863 6.384 6.384v469.232c0 3.521-2.864 6.384-6.384 6.384h-298.096c-3.986-13.287-3.669-28.029.943-44.885 2.902-10.606.362-21.926-6.794-30.279-7.091-8.277-17.765-12.48-28.565-11.262-17.129 1.941-34.239.526-50.934-4.21v-47.791c0-4.143-3.357-7.5-7.5-7.5s-7.5 3.357-7.5 7.5v66.72c0 47.811 38.896 86.707 86.707 86.707h311.739c11.791 0 21.384-9.593 21.384-21.384v-469.232c0-11.791-9.593-21.384-21.384-21.384zm-383.446 425.293v-3.398c17.28 4.384 34.938 5.591 52.625 3.584 5.926-.672 11.575 1.556 15.482 6.116 3.974 4.638 5.328 10.675 3.717 16.562-4.901 17.915-5.578 33.992-2.018 48.819-38.664-1.012-69.806-32.78-69.806-71.683z"/><path d="m284.016 80.968c4.143 0 7.5-3.357 7.5-7.5s-3.357-7.5-7.5-7.5h-56.334c-6.564 0-11.904 5.34-11.904 11.903v24.221c0 6.563 5.34 11.903 11.904 11.903h166.924c6.564 0 11.904-5.34 11.904-11.903v-24.221c0-6.563-5.34-11.903-11.904-11.903h-81.59c-4.143 0-7.5 3.357-7.5 7.5s3.357 7.5 7.5 7.5h78.494v18.027h-160.733v-18.027z"/><path d="m168.68 197.177c4.143 0 7.5-3.357 7.5-7.5s-3.357-7.5-7.5-7.5h-12.289c-4.143 0-7.5 3.357-7.5 7.5v61.113c0 4.143 3.357 7.5 7.5 7.5h12.289c4.143 0 7.5-3.357 7.5-7.5s-3.357-7.5-7.5-7.5h-4.789v-46.113z"/><path d="m206.066 197.177c4.143 0 7.5-3.357 7.5-7.5s-3.357-7.5-7.5-7.5h-12.29c-4.143 0-7.5 3.357-7.5 7.5v61.113c0 4.143 3.357 7.5 7.5 7.5h12.29c4.143 0 7.5-3.357 7.5-7.5s-3.357-7.5-7.5-7.5h-4.79v-46.113z"/><path d="m243.452 197.177c4.143 0 7.5-3.357 7.5-7.5s-3.357-7.5-7.5-7.5h-12.29c-4.143 0-7.5 3.357-7.5 7.5v61.113c0 4.143 3.357 7.5 7.5 7.5h12.29c4.143 0 7.5-3.357 7.5-7.5s-3.357-7.5-7.5-7.5h-4.79v-46.113z"/><path d="m280.838 197.177c4.143 0 7.5-3.357 7.5-7.5s-3.357-7.5-7.5-7.5h-12.289c-4.143 0-7.5 3.357-7.5 7.5v61.113c0 4.143 3.357 7.5 7.5 7.5h12.289c4.143 0 7.5-3.357 7.5-7.5s-3.357-7.5-7.5-7.5h-4.789v-46.113z"/><path d="m318.225 197.177c4.143 0 7.5-3.357 7.5-7.5s-3.357-7.5-7.5-7.5h-12.29c-4.143 0-7.5 3.357-7.5 7.5v61.113c0 4.143 3.357 7.5 7.5 7.5h12.29c4.143 0 7.5-3.357 7.5-7.5s-3.357-7.5-7.5-7.5h-4.79v-46.113z"/><path d="m355.61 197.177c4.143 0 7.5-3.357 7.5-7.5s-3.357-7.5-7.5-7.5h-12.289c-4.143 0-7.5 3.357-7.5 7.5v61.113c0 4.143 3.357 7.5 7.5 7.5h12.289c4.143 0 7.5-3.357 7.5-7.5s-3.357-7.5-7.5-7.5h-4.789v-46.113z"/><path d="m124.25 171.263v130.885c0 8.212 6.682 14.894 14.894 14.894h233.714c8.212 0 14.893-6.682 14.893-14.894v-61.914c0-4.143-3.357-7.5-7.5-7.5s-7.5 3.357-7.5 7.5v28.211h-233.5v-96.422h233.5v39.211c0 4.143 3.357 7.5 7.5 7.5s7.5-3.357 7.5-7.5v-39.971c0-7.853-6.388-14.24-14.24-14.24h-235.021c-7.852-.001-14.24 6.387-14.24 14.24zm248.5 112.181v18.597h-233.5v-18.597z"/><path d="m362.452 346.539c0-4.143-3.357-7.5-7.5-7.5h-197.903c-4.143 0-7.5 3.357-7.5 7.5s3.357 7.5 7.5 7.5h197.903c4.143 0 7.5-3.357 7.5-7.5z"/><path d="m188.035 383.764h135.931c4.143 0 7.5-3.357 7.5-7.5s-3.357-7.5-7.5-7.5h-135.931c-4.143 0-7.5 3.357-7.5 7.5s3.358 7.5 7.5 7.5z"/><path d="m316.246 435.191c2.514 9.546 4.685 17.79 10.825 21.332 2.722 1.567 5.794 1.949 8.897 1.103 5.775-1.58 9.673-5.399 12.475-9.718.97 3.747 2.423 6.701 5.115 8.566 2.089 1.447 4.63 1.975 7.17 1.407 4.828-1.078 7.344-5.269 10.826-11.067 5.509-9.175 13.835-23.041 32.072-29.71 3.89-1.423 5.891-5.729 4.468-9.62-1.423-3.889-5.729-5.891-9.62-4.468-20.008 7.317-30.775 21.657-37.075 31.651-.977-6.832-1.863-11.416-5.708-13.967-1.995-1.324-4.464-1.734-6.772-1.12-5.161 1.369-7.054 6.286-9.058 11.493-1.45 3.768-3.332 8.656-5.873 10.936-1.156-2.737-2.409-7.496-3.236-10.638-3.133-11.896-7.031-26.703-19.877-26.703-4.042 0-7.738 1.624-10.688 4.696-9.754 10.158-9.211 36.211-9.003 41.331.169 4.136 3.656 7.357 7.795 7.188 4.137-.166 7.356-3.655 7.193-7.793-.507-12.818 1.736-27.158 4.61-30.16 2.055 2.311 4.247 10.639 5.464 15.261z"/></g></g></svg>