<svg id="Capa_1" enable-background="new 0 0 512.001 512.001" height="512" viewBox="0 0 512.001 512.001" width="512" xmlns="http://www.w3.org/2000/svg"><g><g><g><path d="m460.623 255.263 39.38-58.001c-5.647-25.193-16.421-48.445-31.17-68.61l-178.035-3.799-119.07.606c-23.867 31.207-38.056 70.208-38.056 112.529 0 102.402 83.013 185.415 185.415 185.415 41.072 0 79.017-13.364 109.746-35.967z" fill="#b7efff"/><g fill="#99e6fc"><path d="m437.503 351.388c-31.21 40.316-78.67 67.417-132.56 71.482 4.669.352 9.385.533 14.144.533 41.072 0 79.017-13.364 109.746-35.967z"/><path d="m500.003 197.262c-5.647-25.193-16.421-48.445-31.17-68.61l-28.724-.613c21.667 29.374 34.865 65.373 36.013 104.396z"/></g><path d="m459.64 140.226c3.531-3.839 6.577-7.702 9.193-11.574-33.729-46.117-88.235-76.078-149.746-76.078-60.08 0-113.476 28.584-147.358 72.885 5.193 22.079 15.904 48.26 37.491 48.125 37.295-.233 58.141-28.34 98.578-14.574s81.87 57.303 151.842-18.784z" fill="#5de1c4"/><path d="m452.661 147.509c2.296-2.299 4.62-4.718 6.979-7.283 3.531-3.839 6.577-7.702 9.193-11.574-33.729-46.117-88.235-76.078-149.746-76.078-4.714 0-9.382.196-14.008.542 63.498 4.836 118.043 41.664 147.582 94.393z" fill="#0ed2b3"/><path d="m500.003 197.262c-20.766-.829-46.54 2.473-60.744 20.684-26.377 33.816-4.058 43.961-28.744 73.72-11.704 14.109-16.553 65.399 18.317 95.771 45.885-33.752 75.669-88.118 75.669-149.448 0-13.994-1.56-27.621-4.498-40.727z" fill="#5de1c4"/><path d="m500.003 197.262c-8.806-.351-18.51.046-27.853 2.002 2.654 12.491 4.062 25.442 4.062 38.724 0 53.773-22.9 102.19-59.468 136.058 3.353 4.752 7.351 9.265 12.088 13.39 45.885-33.752 75.669-88.118 75.669-149.448 0-13.993-1.56-27.62-4.498-40.726z" fill="#0ed2b3"/><path d="m220.155 223.111c8.351-16.948 27.552-25.691 45.536-19.9 7.668 2.469 15.83 6.388 23.927 12.46 31.706 23.78 46.899 51.523 40.954 71.339s-105.688 45.557-131.45-3.643c-21.122-40.341 8.541-34.903 21.033-60.256z" fill="#5de1c4"/><path d="m289.618 215.67c-8.096-6.072-16.259-9.991-23.927-12.46-10.946-3.525-22.338-1.657-31.465 4.159 3.897-.049 7.86.522 11.766 1.779 7.668 2.469 15.83 6.388 23.927 12.46 31.706 23.78 46.899 51.523 40.954 71.339-1.558 5.195-9.569 10.794-20.996 15.347 21.316-4.688 38.343-13.448 40.695-21.286 5.945-19.815-9.247-47.558-40.954-71.338z" fill="#0ed2b3"/></g><g><path d="m72.884 295.819-37.529-41.999c-2.609-2.92-6.864-3.702-10.341-1.9l-17.513 9.075 22.227 74.346z" fill="#faf7f8"/><path d="m18.168 296.676 11.56 38.666 43.156-39.523-15.408-17.243-7.911 1.321c-12.308 2.056-23.229 8.099-31.397 16.779z" fill="#e5eef9"/><path d="m128.156 185.107-24.012 7.241c-4.266 1.287-6.474 5.989-4.739 10.093l41.133 97.291 70.878-21.375-75.327-90.859c-1.924-2.318-5.049-3.261-7.933-2.391z" fill="#faf7f8"/><path d="m140.538 299.733 70.877-21.375-20.377-24.579-65.317 10.909z" fill="#e5eef9"/><path d="m291.746 289.095-45.408-26.672-190.476 31.813c-23.044 3.849-41.238 21.667-45.566 44.626-1.519 8.058 4.027 15.743 12.154 16.84l295.733 39.904c28.069 3.788 53.039-18.04 53.039-46.363 0-9.087-1.323-17.819-3.763-26.042z" fill="#82aee3"/><path d="m339.176 310.46c6.433 12.452 10.1 26.627 10.1 41.783 0 19.985-12.438 36.721-29.618 43.521 27.462 2.842 51.565-18.695 51.565-46.521 0-9.087-1.323-17.819-3.763-26.042z" fill="#528fd8"/><path d="m184.759 459.359-26.825-3.923c-3.736-.546-6.174-4.213-5.231-7.87l25.261-97.993c.81-3.142 3.858-5.168 7.069-4.699l58.134 8.501c4.496.658 6.867 5.687 4.514 9.574l-56.57 93.415c-1.323 2.185-3.825 3.365-6.352 2.995z" fill="#faf7f8"/><path d="m243.168 353.376-19.604-2.867c4.496.658 6.867 5.687 4.513 9.574l-56.57 93.415c-1.323 2.184-3.825 3.364-6.351 2.994l19.604 2.867c2.527.369 5.029-.81 6.351-2.994l56.57-93.415c2.354-3.887-.017-8.916-4.513-9.574z" fill="#e5eef9"/><path d="m265.015 259.304-18.677 3.12 10.691 37.145c5.338 18.546 23.011 30.758 42.246 29.19l68.185-5.557c-12.695-42.781-55.817-71.686-102.445-63.898z" fill="#faf7f8"/><path d="m345.155 325.019 22.304-1.818c-12.695-42.78-55.817-71.685-102.444-63.897l-11.003 1.838c41.868-1.958 79.056 25.098 91.143 63.877z" fill="#e5eef9"/></g></g><g><path d="m512.001 237.988c0-106.984-87.145-192.915-192.914-192.915-83.875 0-157.848 54.243-183.485 133.171-3.017-1.136-6.384-1.291-9.611-.318l-24.012 7.241c-4.068 1.227-7.438 4.137-9.243 7.983-1.807 3.847-1.893 8.298-.238 12.211l7.098 16.789c1.613 3.815 6.014 5.601 9.829 3.987 3.814-1.613 5.6-6.014 3.987-9.829l-7.103-16.78 24.007-7.243 59.649 71.949-52.579 8.782-12.661-29.947c-1.613-3.815-6.014-5.6-9.829-3.987-3.814 1.613-5.6 6.014-3.987 9.829l11.265 26.646-49.89 8.333-31.335-35.068c-4.893-5.474-12.861-6.939-19.384-3.562l-17.514 9.075c-3.199 1.657-4.768 5.355-3.735 8.808l14.336 47.948c-5.785 7.629-9.883 16.608-11.725 26.381-1.104 5.853.263 11.979 3.748 16.809s8.87 8.057 14.773 8.854l140.393 18.944-16.4 63.616c-.979 3.801-.295 7.855 1.877 11.124 2.173 3.269 5.647 5.47 9.532 6.038l26.825 3.923h.001c.675.099 1.349.147 2.017.147 4.796 0 9.295-2.487 11.834-6.678l31.318-51.716c27.658 14.651 58.732 22.369 90.243 22.369 42.299 0 81.461-13.684 113.293-36.858.612-.328 1.186-.747 1.702-1.253 47.255-35.194 77.918-91.485 77.918-154.803zm-82.395-61.74c11.638-7.463 23.408-17.737 35.554-30.945 1.151-1.251 2.267-2.521 3.344-3.804 9.538 14.72 16.962 30.932 21.838 48.201-18.902.542-34.451 5.008-45.959 13.15-4.54-9.826-9.543-18.668-14.777-26.602zm-228.385 78.062c1.725-2.378 4.524-4.655 7.666-7.21 5.806-4.722 13.031-10.598 17.996-20.674 6.859-13.92 22.213-20.676 36.51-16.077 7.713 2.484 15.022 6.293 21.726 11.321 15.605 11.704 27.27 24.552 33.674 36.801-17.14-7.326-36.183-9.708-55.011-6.565-5.823.973-47.968 8.012-56.701 9.47zm132.898 31.071c10.116 8.566 17.911 19.256 22.958 31.141l-58.411 4.761c-15.614 1.275-30.098-8.732-34.431-23.789l-8.364-29.059 10.379-1.734c24.315-4.061 49.055 2.747 67.869 18.68zm-305.655-26.802c.44-.225.973-.127 1.299.238l25.017 27.996-.152.025c-10.371 1.732-19.907 6.003-27.937 12.155l-10.224-34.197zm156.627 193.249-24.806-3.628 24.685-95.755 55.399 8.102zm51.537-56.147 1.966-3.246 62.741 8.466c4.114.554 7.883-2.332 8.436-6.43.554-4.104-2.325-7.882-6.43-8.436l-56.274-7.593 7.03-11.608c2.411-3.981 2.665-8.871.681-13.081-1.985-4.21-5.92-7.125-10.524-7.798l-58.134-8.502c-7.027-1.03-13.647 3.379-15.417 10.248l-5.091 19.75-142.159-19.182c-1.872-.253-3.511-1.235-4.616-2.767-1.104-1.53-1.521-3.396-1.171-5.251 3.729-19.782 19.576-35.302 39.432-38.618l183.882-30.712 8.842 30.721c5.939 20.64 24.989 34.75 46.177 34.75 1.288 0 2.585-.053 3.887-.158l61.877-5.043c1.293 5.871 1.961 11.919 1.961 18.052 0 19.331-14.395 36.039-33.483 38.865-4.098.606-6.927 4.42-6.32 8.518.609 4.11 4.439 6.93 8.518 6.32 26.388-3.906 46.286-26.994 46.286-53.703 0-29.707-13.22-56.941-34.91-75.31-1.707-1.445-3.455-2.827-5.241-4.144-3.577-19.708-19.755-41.597-44.453-60.12-8.037-6.028-16.827-10.604-26.128-13.599-21.443-6.906-44.387 3.073-54.562 23.724-3.517 7.138-8.849 11.474-14.005 15.668-2.728 2.218-5.506 4.478-7.933 7.109l-43.725-52.741c4.77-17.015 11.942-32.878 21.09-47.26 10.95 31.359 27.439 38.514 40.197 38.514.071 0 .144-.001.215-.001 16.607-.104 29.815-5.131 42.59-9.992 17.269-6.571 32.181-12.245 53.524-4.982 6.9 2.35 13.934 5.662 21.379 9.169 5.215 2.457 10.606 4.997 16.186 7.306.938.388 1.908.571 2.864.571 2.944 0 5.737-1.745 6.934-4.635 1.583-3.827-.235-8.214-4.063-9.798-5.246-2.17-10.474-4.633-15.528-7.014-7.492-3.529-15.239-7.179-22.937-9.799-26.458-9.008-45.387-1.805-63.693 5.163-12.06 4.589-23.451 8.924-37.349 9.011-.037 0-.072.001-.109.001-16.265 0-25.055-22.997-29.193-38.942 33.008-41.367 83.766-67.07 139.217-67.07 56.986 0 107.8 26.931 140.384 68.734-1.657 2.15-3.446 4.271-5.352 6.342-12.329 13.407-23.408 22.605-33.296 28.85-8.304-10.669-16.854-19.308-24.824-26.203-29.804-25.783-57.711-33.315-58.885-33.623-4.001-1.056-8.089 1.338-9.147 5.337-1.058 3.998 1.328 8.101 5.324 9.167.259.069 26.238 7.194 53.459 30.954 7.544 6.585 14.441 13.737 20.685 21.442-13.2 5.581-23.761 5.824-31.886 5.019-4.123-.393-7.794 2.604-8.201 6.727s2.604 7.794 6.727 8.201c2.634.26 5.252.391 7.863.391 11.669 0 23.138-2.614 34.647-7.961 6.325 9.399 11.805 19.506 16.432 30.304-14.464 18.713-15.428 31.33-16.279 42.471-.761 9.962-1.361 17.831-11.996 30.651-7.72 9.306-11.739 28.297-10.003 47.259 1.842 20.115 9.691 38.346 22.35 52.278-28.121 18.63-61.817 29.489-98.002 29.489-28.78.002-57.156-6.973-82.464-20.22zm192.696-18.138c-25.998-27.262-22.279-69.946-13.037-81.089 13.683-16.494 14.6-28.496 15.408-39.086.616-8.073 1.205-15.786 7.734-26.559 5.276 16.157 8.862 33.663 10.734 52.473.385 3.869 3.646 6.758 7.454 6.758.248 0 .499-.013.752-.038 4.121-.41 7.13-4.084 6.72-8.206-2.469-24.808-7.758-46.221-14.713-64.638 11.634-9.849 28.813-12.455 43.492-12.51 2.056 10.803 3.133 21.948 3.133 33.34 0 56.505-26.478 106.941-67.677 139.555z"/><path d="m319.837 90.378c-3.78-1.689-8.217.004-9.907 3.788l-5.238 11.723c-1.689 3.781.006 8.217 3.788 9.907.994.444 2.032.654 3.056.654 2.867 0 5.605-1.654 6.852-4.442l5.238-11.723c1.688-3.781-.007-8.217-3.789-9.907z"/><path d="m467.837 297.019h-14.428c-4.143 0-7.5 3.357-7.5 7.5s3.357 7.5 7.5 7.5h14.428c4.143 0 7.5-3.357 7.5-7.5s-3.358-7.5-7.5-7.5z"/><path d="m220.49 294.56-12.965.553c-4.139.177-7.351 3.674-7.174 7.812.172 4.03 3.492 7.181 7.487 7.181.108 0 .217-.002.325-.007l12.965-.553c4.139-.177 7.351-3.674 7.174-7.812-.176-4.139-3.702-7.364-7.812-7.174z"/><path d="m173.636 299.23-12.965.553c-4.139.177-7.351 3.674-7.174 7.812.172 4.03 3.492 7.181 7.487 7.181.108 0 .217-.002.325-.007l12.965-.553c4.139-.177 7.351-3.674 7.174-7.812-.177-4.139-3.686-7.34-7.812-7.174z"/><path d="m126.105 303.931-12.965.553c-4.139.177-7.351 3.674-7.174 7.812.172 4.03 3.492 7.181 7.487 7.181.108 0 .217-.002.325-.007l12.965-.553c4.139-.177 7.351-3.674 7.174-7.812-.176-4.14-3.697-7.345-7.812-7.174z"/></g></g></svg>