<svg id="Capa_1" enable-background="new 0 0 512 512" height="512" viewBox="0 0 512 512" width="512" xmlns="http://www.w3.org/2000/svg"><g><g><g><path d="m460.621 210.187 39.38-58.001c-5.647-25.193-16.421-48.445-31.17-68.61l-178.035-3.799-119.07.606c-23.867 31.207-38.056 70.208-38.056 112.529 0 102.402 83.013 185.415 185.415 185.415 41.072 0 79.017-13.364 109.746-35.967z" fill="#b7efff"/><g fill="#99e6fc"><path d="m437.501 306.311c-31.21 40.316-78.67 67.417-132.56 71.482 4.669.352 9.385.533 14.144.533 41.072 0 79.017-13.364 109.746-35.967z"/><path d="m500.002 152.186c-5.647-25.193-16.421-48.445-31.17-68.61l-28.724-.613c21.667 29.374 34.865 65.373 36.013 104.396z"/></g><path d="m459.638 95.15c3.531-3.839 6.577-7.702 9.193-11.574-33.729-46.117-88.234-76.079-149.746-76.079-60.08 0-113.476 28.584-147.358 72.885 5.193 22.079 15.904 48.26 37.491 48.125 37.295-.233 58.141-28.34 98.578-14.574s81.87 57.304 151.842-18.783z" fill="#5de1c4"/><path d="m452.659 102.433c2.296-2.299 4.62-4.718 6.979-7.283 3.531-3.839 6.577-7.702 9.193-11.574-33.729-46.117-88.234-76.079-149.746-76.079-4.714 0-9.382.196-14.008.542 63.499 4.837 118.044 41.665 147.582 94.394z" fill="#0ed2b3"/><path d="m500.002 152.185c-20.766-.829-46.54 2.473-60.744 20.684-26.377 33.816-4.058 43.961-28.744 73.72-11.704 14.109-16.553 65.399 18.317 95.771 45.885-33.752 75.669-88.118 75.669-149.448 0-13.993-1.561-27.62-4.498-40.727z" fill="#5de1c4"/><path d="m500.002 152.185c-8.806-.351-18.51.046-27.853 2.002 2.654 12.491 4.062 25.442 4.062 38.724 0 53.773-22.9 102.19-59.468 136.058 3.353 4.752 7.351 9.265 12.088 13.39 45.885-33.752 75.669-88.118 75.669-149.448 0-13.992-1.561-27.619-4.498-40.726z" fill="#0ed2b3"/><path d="m220.154 178.034c8.351-16.948 27.552-25.691 45.536-19.9 7.668 2.469 15.83 6.388 23.927 12.46 31.706 23.78 46.899 51.523 40.954 71.339-5.945 19.817-105.688 45.557-131.45-3.643-21.122-40.341 8.54-34.903 21.033-60.256z" fill="#5de1c4"/><path d="m289.617 170.593c-8.096-6.072-16.259-9.991-23.927-12.46-10.946-3.525-22.338-1.657-31.465 4.159 3.897-.049 7.86.522 11.766 1.779 7.668 2.469 15.83 6.388 23.927 12.46 31.706 23.78 46.899 51.523 40.954 71.339-1.558 5.195-9.569 10.795-20.996 15.347 21.316-4.688 38.343-13.448 40.695-21.286 5.945-19.815-9.248-47.558-40.954-71.338z" fill="#0ed2b3"/></g><path d="m7.5 323.516h180.981v180.981h-180.981z" fill="#fdb441"/><path d="m168.04 323.516h20.44v180.981h-20.44z" fill="#fea713"/><path d="m110.334 366.398-10.212-7.129c-1.28-.894-2.983-.894-4.263 0l-10.212 7.129c-2.468 1.723-5.855-.043-5.855-3.053v-39.829h36.397v39.829c0 3.011-3.387 4.777-5.855 3.053z" fill="#ffd15b"/><path d="m116.189 504.497h-36.397v-19.808c0-2.332 1.891-4.223 4.223-4.223h27.952c2.332 0 4.223 1.891 4.223 4.223v19.808z" fill="#ffd15b"/><path d="m7.5 216.775h196.44v106.741h-196.44z" fill="#ffe177"/><path d="m187.367 216.775h16.573v106.741h-16.573z" fill="#ffd15b"/><g fill="#fdb441"><path d="m115.728 257.057-8.28-6.697c-1.038-.84-2.418-.84-3.457 0l-8.28 6.697c-2.001 1.619-4.747-.04-4.747-2.868v-37.413h29.511v37.413c0 2.827-2.746 4.486-4.747 2.868z"/><path d="m120.475 323.516h-29.511v-20.646c0-2.12 1.718-3.838 3.838-3.838h21.835c2.12 0 3.838 1.718 3.838 3.838z"/><path d="m188.481 323.516h180.981v180.981h-180.981z"/></g><path d="m349.022 323.516h20.44v180.981h-20.44z" fill="#fea713"/><path d="m291.315 366.398-10.212-7.129c-1.28-.894-2.983-.894-4.263 0l-10.212 7.129c-2.468 1.723-5.855-.043-5.855-3.053v-39.829h36.397v39.829c0 3.011-3.387 4.777-5.855 3.053z" fill="#ffd15b"/><path d="m297.17 504.497h-36.397v-19.808c0-2.332 1.891-4.223 4.223-4.223h27.952c2.332 0 4.223 1.891 4.223 4.223v19.808z" fill="#ffd15b"/><path d="m369.462 399.459h135.038v105.038h-135.038z" fill="#fdb441"/><path d="m486.681 399.459h17.819v105.038h-17.819z" fill="#fea713"/><path d="m446.191 431.456-7.619-5.319c-.955-.667-2.225-.667-3.181 0l-7.619 5.319c-1.842 1.286-4.369-.032-4.369-2.278v-29.718h27.158v29.718c-.001 2.246-2.528 3.563-4.37 2.278z" fill="#ffd15b"/><path d="m450.56 504.497h-27.158v-23.28c0-2.142 1.736-3.878 3.878-3.878h19.402c2.142 0 3.878 1.736 3.878 3.878z" fill="#ffd15b"/></g><g><path d="m319.835 45.304c-3.783-1.69-8.217.006-9.907 3.788l-5.238 11.724c-1.689 3.782.006 8.218 3.788 9.907.994.444 2.033.654 3.056.654 2.868 0 5.605-1.654 6.852-4.442l5.238-11.724c1.689-3.782-.006-8.218-3.789-9.907z"/><path d="m467.835 251.946h-14.428c-4.143 0-7.5 3.357-7.5 7.5s3.357 7.5 7.5 7.5h14.428c4.143 0 7.5-3.357 7.5-7.5s-3.357-7.5-7.5-7.5z"/><path d="m32.914 458.946c-4.143 0-7.5 3.357-7.5 7.5v3.348c0 4.143 3.357 7.5 7.5 7.5s7.5-3.357 7.5-7.5v-3.348c0-4.142-3.358-7.5-7.5-7.5z"/><path d="m59.856 458.946c-4.143 0-7.5 3.357-7.5 7.5v3.348c0 4.143 3.357 7.5 7.5 7.5s7.5-3.357 7.5-7.5v-3.348c0-4.142-3.357-7.5-7.5-7.5z"/><path d="m42.495 295.379v-2.714c0-4.143-3.357-7.5-7.5-7.5s-7.5 3.357-7.5 7.5v2.714c0 4.143 3.357 7.5 7.5 7.5s7.5-3.358 7.5-7.5z"/><path d="m66.915 295.379v-2.714c0-4.143-3.357-7.5-7.5-7.5s-7.5 3.357-7.5 7.5v2.714c0 4.143 3.357 7.5 7.5 7.5s7.5-3.358 7.5-7.5z"/><path d="m206.395 466.446v3.348c0 4.143 3.357 7.5 7.5 7.5s7.5-3.357 7.5-7.5v-3.348c0-4.143-3.357-7.5-7.5-7.5s-7.5 3.358-7.5 7.5z"/><path d="m233.336 466.446v3.348c0 4.143 3.357 7.5 7.5 7.5s7.5-3.357 7.5-7.5v-3.348c0-4.143-3.357-7.5-7.5-7.5s-7.5 3.358-7.5 7.5z"/><path d="m397.176 468.606c-4.143 0-7.5 3.357-7.5 7.5v2.498c0 4.143 3.357 7.5 7.5 7.5s7.5-3.357 7.5-7.5v-2.498c0-4.142-3.357-7.5-7.5-7.5z"/><path d="m504.5 391.962h-127.538v-14.969c37.726-11.871 71.595-35.658 95.697-67.311 25.737-33.798 39.341-74.176 39.341-116.767 0-106.39-86.559-192.915-192.915-192.915-106.187 0-192.915 86.366-192.915 192.915 0 5.453.23 10.934.686 16.363h-119.356c-4.143 0-7.5 3.357-7.5 7.5v41.698c0 4.143 3.357 7.5 7.5 7.5s7.5-3.357 7.5-7.5v-34.198h68.464v29.913c0 4.297 2.411 8.224 6.144 10.006 3.569 1.703 7.718 1.205 10.819-1.306l5.293-4.28 5.292 4.28c3.108 2.514 7.258 3.005 10.819 1.306 3.732-1.782 6.144-5.709 6.144-10.006v-29.913h68.465v91.74h-68.465v-13.146c0-6.252-5.086-11.339-11.338-11.339h-21.835c-6.252 0-11.338 5.087-11.338 11.339v13.146h-68.464v-28.542c0-4.143-3.357-7.5-7.5-7.5s-7.5 3.357-7.5 7.5v217.024c0 4.143 3.357 7.5 7.5 7.5h310.525c4.143 0 7.5-3.357 7.5-7.5s-3.357-7.5-7.5-7.5h-13.355v-12.309c0-6.464-5.259-11.723-11.723-11.723h-27.952c-6.464 0-11.723 5.259-11.723 11.723v12.309h-57.292v-165.981h57.292v32.329c0 4.197 2.312 8.011 6.033 9.951 3.722 1.941 8.173 1.656 11.615-.748l8.05-5.619 8.051 5.619c0 .001.001.001.001.001 3.45 2.408 7.904 2.684 11.614.747 3.722-1.94 6.033-5.754 6.033-9.951v-32.329h57.292v165.981h-14.937c-4.143 0-7.5 3.357-7.5 7.5s3.357 7.5 7.5 7.5h157.476c4.143 0 7.5-3.357 7.5-7.5v-105.038c0-4.143-3.358-7.5-7.5-7.5zm-236.227 96.007h21.397v9.031h-21.397zm-180.981-156.95h21.397v25.088l-4.271-2.982c-1.923-1.343-4.176-2.015-6.428-2.015s-4.504.672-6.424 2.014l-4.274 2.983zm11.172-24.485h14.511v9.484h-14.511zm-11.172 190.466v-9.031h21.397v9.031zm93.689 0h-57.292v-12.309c0-6.464-5.259-11.723-11.723-11.723h-27.952c-6.464 0-11.723 5.259-11.723 11.723v12.309h-57.291v-165.981h57.291v32.329c0 4.197 2.312 8.011 6.033 9.951 3.722 1.941 8.173 1.656 11.615-.748l8.05-5.619 8.051 5.619c0 .001.001.001.001.001 3.45 2.408 7.904 2.684 11.614.747 3.722-1.94 6.033-5.754 6.033-9.951v-32.329h57.292v165.981zm262.079-90.038v13.163l-.197-.138c-3.519-2.453-8.247-2.455-11.766.002l-.195.136v-13.163zm-13.75-74.505c-25.984-27.262-22.265-69.936-13.024-81.077 13.683-16.493 14.6-28.496 15.408-39.085.613-8.036 1.199-15.714 7.641-26.407 5.044 15.293 8.869 32.655 10.827 52.321.385 3.869 3.646 6.758 7.454 6.758 4.458 0 7.91-3.843 7.472-8.244-2.469-24.808-7.759-46.222-14.714-64.638 11.635-9.849 28.819-12.453 43.493-12.509 2.056 10.802 3.133 21.947 3.133 33.339 0 55.273-26.03 106.412-67.69 139.542zm39.193-236.031c9.539 14.721 16.963 30.934 21.839 48.205-18.895.547-34.448 5.009-45.959 13.149-4.541-9.829-9.544-18.671-14.779-26.606 11.638-7.464 23.408-17.738 35.554-30.945 1.151-1.251 2.267-2.52 3.345-3.803zm-355.528 148.762-.811-.655c-1.897-1.535-4.171-2.303-6.445-2.303-2.273 0-4.547.768-6.443 2.302l-.812.656v-20.909h14.511zm90.965-35.91h-2.751c1.573-2.203 4.115-4.34 7.697-7.253 5.805-4.721 13.03-10.597 17.995-20.674 6.858-13.919 22.213-20.679 36.51-16.076 7.711 2.482 15.02 6.292 21.726 11.321 27.941 20.956 43.321 46.348 38.271 63.182-.909 2.805-12.82 11.537-36.908 16.503-25.562 5.272-58.51 4.452-75.04-13.417v-26.086c0-4.142-3.357-7.5-7.5-7.5zm85.73 146.828-4.271-2.982c-1.923-1.343-4.176-2.015-6.428-2.015s-4.504.672-6.424 2.014l-4.274 2.983v-25.088h21.397zm-78.23-40.087v-53.868c13.593 8.59 30.964 11.917 48.253 11.917 10.84 0 21.646-1.308 31.468-3.444 19.981-4.349 42.715-13.603 46.594-26.532 7.064-23.548-9.656-54.008-43.638-79.494-8.039-6.03-16.83-10.605-26.128-13.599-21.438-6.904-44.387 3.072-54.562 23.724-3.517 7.137-8.849 11.474-14.005 15.667-5.853 4.759-12.365 10.056-14.479 18.89h-43.03c-.493-5.421-.743-10.907-.743-16.363 0-35.029 10.177-67.726 27.728-95.291 10.951 31.253 27.413 38.387 40.154 38.387.07 0 .143-.001.213-.001 16.607-.104 29.816-5.131 42.59-9.992 17.269-6.571 32.182-12.246 53.524-4.983 6.899 2.35 13.932 5.662 21.377 9.169 5.215 2.456 10.608 4.997 16.188 7.306 3.828 1.583 8.214-.237 9.798-4.063 1.583-3.827-.235-8.214-4.063-9.798-5.247-2.171-10.475-4.633-15.53-7.015-7.491-3.528-15.237-7.178-22.935-9.798-26.458-9.007-45.387-1.802-63.693 5.163-12.06 4.59-23.45 8.925-37.349 9.012h-.107c-16.22 0-25.007-22.866-29.16-38.804 32.624-40.933 82.891-67.209 139.18-67.209 56.986 0 107.8 26.931 140.384 68.734-1.657 2.149-3.446 4.27-5.352 6.342-12.329 13.407-23.408 22.606-33.297 28.851-8.303-10.669-16.854-19.308-24.823-26.202-29.804-25.783-57.712-33.315-58.885-33.623-4.008-1.052-8.106 1.343-9.158 5.35s1.344 8.106 5.35 9.158c.254.067 25.683 6.932 52.879 30.459 6.789 5.873 14.035 13.128 21.14 21.98-13.147 5.536-23.672 5.775-31.775 4.972-4.109-.398-7.793 2.605-8.201 6.727-.407 4.122 2.604 7.794 6.727 8.201 2.634.26 5.252.391 7.863.391 11.614 0 23.029-2.589 34.483-7.885 5.911 8.837 11.526 18.925 16.465 30.4-14.338 18.619-15.299 31.193-16.147 42.3-.761 9.963-1.361 17.831-11.996 30.651-7.72 9.307-11.739 28.298-10.003 47.26 1.843 20.119 9.694 38.354 22.358 52.287-12.328 8.198-25.78 14.914-40.134 19.854v-37.686c0-4.143-3.357-7.5-7.5-7.5h-158.023zm219.462 180.981v-12.158h12.158v12.158zm66.098 0h-38.94v-15.78c0-6.273-5.104-11.378-11.378-11.378h-19.402c-6.273 0-11.378 5.104-11.378 11.378v15.78h-38.939v-90.038h38.939v22.219c0 3.844 2.117 7.336 5.526 9.113 1.501.783 3.132 1.17 4.756 1.17 2.063 0 4.117-.625 5.88-1.856l4.917-3.433 4.917 3.433c3.15 2.2 7.227 2.464 10.636.687s5.526-5.27 5.526-9.113v-22.219h38.94z"/></g></g></svg>