<svg id="Capa_1" enable-background="new 0 0 512 512" height="512" viewBox="0 0 512 512" width="512" xmlns="http://www.w3.org/2000/svg"><g><g><path d="m421.287 504.5h-330.574c-11.167 0-20.22-9.053-20.22-20.22v-456.56c0-11.167 9.053-20.22 20.22-20.22h330.573c11.167 0 20.22 9.053 20.22 20.22v456.56c.001 11.167-9.052 20.22-20.219 20.22z" fill="#fdb441"/><path d="m421.287 7.5h-22.033c11.167 0 20.22 9.053 20.22 20.22v456.56c0 11.167-9.053 20.22-20.22 20.22h22.033c11.167 0 20.22-9.053 20.22-20.22v-456.56c0-11.167-9.053-20.22-20.22-20.22z" fill="#fea713"/><path d="m393.519 463.393h-275.038c-1.855 0-3.359-1.504-3.359-3.359v-394.224c0-1.855 1.504-3.359 3.359-3.359h275.038c1.855 0 3.359 1.504 3.359 3.359v394.224c0 1.855-1.504 3.359-3.359 3.359z" fill="#faf7f8"/><path d="m393.519 62.451h-22.137c1.855 0 3.359 1.504 3.359 3.359v394.224c0 1.855-1.504 3.359-3.359 3.359h22.137c1.855 0 3.359-1.504 3.359-3.359v-394.224c0-1.855-1.504-3.359-3.359-3.359z" fill="#e5eef9"/><path d="m329.874 40.257h-147.748c-4.499 0-8.147-3.647-8.147-8.147v-24.61h164.041v24.61c.001 4.499-3.647 8.147-8.146 8.147z" fill="#6c5e69"/><path d="m319.085 7.5v24.61c0 4.5-3.647 8.147-8.147 8.147h18.936c4.5 0 8.147-3.647 8.147-8.147v-24.61z" fill="#574d56"/><g><g><path d="m203.338 174.185 20.061-11.583c.171-1.453.269-2.928.269-4.427 0-12.537-6.165-23.627-15.622-30.426l-.063.316-27.125.482-11.983 16.639-17.306-1.273c-1.812 4.397-2.818 9.211-2.818 14.262 0 18.736 13.755 34.258 31.718 37.021z" fill="#b7efff"/><g fill="#5de1c4"><path d="m186.209 120.716c-15.637 0-29.03 9.584-34.641 23.196 5.775 7.879 14.569 16.724 23.447 13.621 15.178-5.305 2.921-19.736 32.968-29.469.119-.038.227-.078.343-.116-6.198-4.544-13.842-7.232-22.117-7.232z"/><path d="m192.251 167.556c-9.933 7.34-11.968 18.786-11.782 27.639 1.872.288 3.789.438 5.741.438 19.189 0 34.998-14.432 37.189-33.032-10.394-3.629-23.389-.778-31.148 4.955z"/></g></g><path d="m359.363 172.75h-103.2c-2.147 0-3.887-1.74-3.887-3.887v-21.377c0-2.147 1.74-3.887 3.887-3.887h103.2c2.147 0 3.887 1.74 3.887 3.887v21.377c-.001 2.147-1.741 3.887-3.887 3.887z" fill="#6c5e69"/><path d="m359.363 143.599h-16.95c2.147 0 3.887 1.74 3.887 3.887v21.377c0 2.147-1.74 3.887-3.887 3.887h16.95c2.147 0 3.887-1.74 3.887-3.887v-21.377c-.001-2.147-1.741-3.887-3.887-3.887z" fill="#574d56"/></g></g><g><path d="m186.21 113.215c-24.755 0-44.959 20.137-44.959 44.959 0 24.802 20.183 44.959 44.959 44.959 24.79 0 44.958-20.169 44.958-44.959 0-24.786-20.167-44.959-44.958-44.959zm0 15c1.219 0 2.422.074 3.604.216-6.801 4.835-9.659 10.287-12.018 15.894-1.626 3.864-2.117 5.03-5.254 6.127-2.836.99-7.33-1.819-12.151-7.461 5.216-8.836 14.837-14.776 25.819-14.776zm-29.912 31.639c5.594 4.355 10.657 5.83 14.948 5.83 2.319 0 4.415-.432 6.245-1.071 9.429-3.295 12.146-9.754 14.13-14.47 2.034-4.834 3.966-9.424 15.174-13.715 4.714 4.465 7.983 10.443 9.02 17.148-9.8-.574-20.326 2.262-28.021 7.948-7.628 5.636-12.419 13.774-14.129 23.854-9.791-4.533-16.738-14.2-17.367-25.524zm32.125 28.197c1.039-6.309 3.812-11.158 8.285-14.463 4.119-3.045 10.954-5.351 17.63-5.101-3.969 10.793-13.982 18.689-25.915 19.564z"/><path d="m370.75 147.485c0-6.278-5.108-11.387-11.387-11.387h-27.883c-4.143 0-7.5 3.357-7.5 7.5s3.357 7.5 7.5 7.5h24.27v14.15h-95.974v-14.15h44.108c4.143 0 7.5-3.357 7.5-7.5s-3.357-7.5-7.5-7.5h-47.722c-6.278 0-11.387 5.108-11.387 11.387v21.377c0 6.278 5.108 11.387 11.387 11.387h103.2c6.278 0 11.387-5.108 11.387-11.387v-21.377z"/><path d="m294.333 415.865c2.031 7.714 3.785 14.376 9.133 17.46 2.465 1.422 5.363 1.782 8.163 1.019 3.654-1 6.42-3.058 8.561-5.523.811 1.786 1.92 3.283 3.521 4.392 1.488 1.03 3.196 1.562 4.949 1.562.64 0 1.285-.071 1.927-.215 4.438-.99 6.643-4.661 9.433-9.308 4.11-6.846 10.321-17.189 23.767-22.106 3.89-1.423 5.891-5.729 4.468-9.62-1.423-3.889-5.729-5.891-9.62-4.468-13.562 4.96-21.742 13.931-26.934 21.35-.725-3.333-1.853-5.876-4.404-7.569-1.946-1.291-4.355-1.691-6.612-1.093-4.822 1.28-6.507 5.657-8.136 9.89-.564 1.467-1.394 3.622-2.34 5.366-.497-1.645-.98-3.48-1.368-4.955-2.425-9.21-5.746-21.823-16.959-21.823-3.591 0-6.865 1.433-9.468 4.144-7.786 8.108-7.636 27.345-7.404 33.048.168 4.139 3.639 7.347 7.799 7.189 4.139-.168 7.357-3.66 7.189-7.799-.287-7.072.551-14.953 1.865-19.222.956 2.533 1.879 6.039 2.47 8.281z"/><path d="m354.423 233.123h-196.845c-4.143 0-7.5 3.357-7.5 7.5s3.357 7.5 7.5 7.5h196.845c4.143 0 7.5-3.357 7.5-7.5s-3.358-7.5-7.5-7.5z"/><path d="m354.423 267.252h-196.845c-4.143 0-7.5 3.357-7.5 7.5s3.357 7.5 7.5 7.5h196.845c4.143 0 7.5-3.357 7.5-7.5s-3.358-7.5-7.5-7.5z"/><path d="m354.423 301.38h-196.845c-4.143 0-7.5 3.357-7.5 7.5s3.357 7.5 7.5 7.5h196.845c4.143 0 7.5-3.357 7.5-7.5s-3.358-7.5-7.5-7.5z"/><path d="m157.578 350.509h196.845c4.143 0 7.5-3.357 7.5-7.5s-3.357-7.5-7.5-7.5h-196.845c-4.143 0-7.5 3.357-7.5 7.5s3.358 7.5 7.5 7.5z"/><path d="m421.287 0h-330.573c-15.285 0-27.721 12.435-27.721 27.72v377.382c0 4.143 3.357 7.5 7.5 7.5s7.5-3.357 7.5-7.5v-377.382c0-7.014 5.706-12.72 12.721-12.72h75.766v17.109c0 8.628 7.02 15.647 15.647 15.647h.538v7.194h-64.184c-5.988 0-10.859 4.871-10.859 10.858v394.225c0 5.987 4.871 10.858 10.859 10.858h275.037c5.988 0 10.859-4.871 10.859-10.858v-102.524c0-4.143-3.357-7.5-7.5-7.5s-7.5 3.357-7.5 7.5v98.384h-266.755v-385.942h60.043v5.336c0 8.476 3.787 16.384 10.391 21.698 5.011 4.031 11.134 6.16 17.413 6.159 1.996 0 4.009-.215 6.007-.652l36.775-8.057c1.8-.396 3.701-.394 5.499 0l36.775 8.057h.001c8.276 1.813 16.815-.192 23.418-5.507 6.604-5.313 10.391-13.223 10.391-21.698v-5.336h60.043v258.558c0 4.143 3.357 7.5 7.5 7.5s7.5-3.357 7.5-7.5v-262.699c0-5.987-4.871-10.858-10.859-10.858h-64.184v-7.194h.539c8.628 0 15.646-7.02 15.646-15.647v-17.111h75.767c7.014 0 12.72 5.706 12.72 12.72v456.56c0 7.015-5.706 12.721-12.72 12.721h-330.573c-7.015 0-12.721-5.706-12.721-12.721v-50.178c0-4.143-3.357-7.5-7.5-7.5s-7.5 3.357-7.5 7.5v50.178c0 15.285 12.436 27.721 27.721 27.721h330.573c15.285 0 27.72-12.436 27.72-27.721v-456.56c0-15.285-12.435-27.72-27.72-27.72zm-106.952 75.287c0 3.911-1.747 7.56-4.794 10.012s-6.985 3.381-10.805 2.541l-36.775-8.057c-3.897-.855-8.021-.855-11.921 0l-36.774 8.057c-3.824.837-7.76-.09-10.807-2.541-3.047-2.452-4.794-6.101-4.794-10.012v-5.336h116.67zm0-20.336h-116.67v-7.194h116.67zm16.186-22.842c0 .357-.29.647-.646.647h-147.748c-.357 0-.647-.29-.647-.647v-17.109h149.041z"/></g></g></svg>