<svg id="Capa_1" enable-background="new 0 0 512 512" height="512" viewBox="0 0 512 512" width="512" xmlns="http://www.w3.org/2000/svg"><g><g><g><path d="m460.622 240.096 39.38-58.001c-5.647-25.193-16.421-48.445-31.17-68.61l-178.035-3.799-119.07.606c-23.867 31.207-38.056 70.208-38.056 112.529 0 102.402 83.013 185.415 185.415 185.415 41.072 0 79.017-13.364 109.746-35.967z" fill="#b7efff"/><g fill="#99e6fc"><path d="m437.502 336.22c-31.21 40.316-78.67 67.417-132.56 71.482 4.669.352 9.385.533 14.144.533 41.072 0 79.017-13.364 109.746-35.967z"/><path d="m500.002 182.094c-5.647-25.193-16.421-48.445-31.17-68.61l-28.724-.613c21.667 29.374 34.865 65.373 36.013 104.396z"/></g><path d="m459.639 125.059c3.531-3.839 6.577-7.702 9.193-11.574-33.729-46.117-88.235-76.078-149.746-76.078-60.08 0-113.476 28.584-147.358 72.885 5.193 22.079 15.904 48.26 37.491 48.125 37.295-.233 58.141-28.34 98.578-14.574 40.437 13.765 81.87 57.303 151.842-18.784z" fill="#5de1c4"/><path d="m452.66 132.342c2.296-2.299 4.62-4.718 6.979-7.283 3.531-3.839 6.577-7.702 9.193-11.574-33.729-46.117-88.235-76.078-149.746-76.078-4.714 0-9.382.196-14.008.542 63.498 4.836 118.043 41.664 147.582 94.393z" fill="#0ed2b3"/><path d="m500.002 182.094c-20.766-.829-46.54 2.473-60.744 20.684-26.377 33.816-4.058 43.961-28.744 73.72-11.704 14.109-16.553 65.399 18.317 95.771 45.885-33.752 75.669-88.118 75.669-149.448 0-13.993-1.56-27.62-4.498-40.727z" fill="#5de1c4"/><path d="m500.002 182.094c-8.806-.351-18.51.046-27.853 2.002 2.654 12.491 4.062 25.442 4.062 38.724 0 53.773-22.9 102.19-59.468 136.058 3.353 4.752 7.351 9.265 12.088 13.39 45.885-33.752 75.669-88.118 75.669-149.448 0-13.992-1.56-27.619-4.498-40.726z" fill="#0ed2b3"/><path d="m220.154 215.943c8.351-16.948 27.552-25.691 45.536-19.9 7.668 2.469 15.83 6.388 23.927 12.46 31.706 23.78 46.899 51.523 40.954 71.339s-105.688 45.557-131.45-3.643c-21.121-40.341 8.541-34.903 21.033-60.256z" fill="#5de1c4"/><path d="m289.617 208.502c-8.096-6.072-16.259-9.991-23.927-12.46-10.946-3.525-22.338-1.657-31.465 4.159 3.897-.049 7.86.522 11.766 1.779 7.668 2.469 15.83 6.388 23.927 12.46 31.706 23.78 46.899 51.523 40.954 71.339-1.558 5.195-9.569 10.794-20.996 15.347 21.316-4.688 38.343-13.448 40.695-21.286 5.945-19.815-9.247-47.558-40.954-71.338z" fill="#0ed2b3"/></g><g><path d="m283.379 233.823h-255.854c-3.648 0-6.606 2.957-6.606 6.605v20.697l134.532 43.402 134.532-43.402v-20.697c.001-3.647-2.956-6.605-6.604-6.605z" fill="#528fd8"/><path d="m382.021 316.172-12.771-30.266h-46.266c-4.994 0-9.042 4.048-9.042 9.042v133.379h137.15c4.994 0 9.042-4.048 9.042-9.042v-48.947z" fill="#ff6470"/><path d="m436.734 354.621c1.052 1.629 1.612 3.527 1.612 5.466v59.197c0 4.994-4.048 9.042-9.042 9.042h21.788c4.994 0 9.042-4.048 9.042-9.042v-48.947l-23.997-16.64z" fill="#ff4555"/><path d="m313.941 428.327h-289.452c-9.383 0-16.989-7.606-16.989-16.989v-20.421h306.441z" fill="#ad9ca9"/><path d="m296.154 390.917h17.787v37.41h-17.787z" fill="#988393"/><path d="m20.92 261.126h269.064v129.791h-269.064z" fill="#82aee3"/><path d="m369.25 285.906v72.541c0 6.567 5.323 11.89 11.89 11.89h78.994v-10.25c0-1.939-.56-3.837-1.612-5.466l-41.419-64.108c-1.856-2.872-5.041-4.607-8.461-4.607z" fill="#faf7f8"/><path d="m458.522 354.621-41.419-64.109c-1.855-2.872-5.041-4.607-8.46-4.607h-21.788c3.419 0 6.605 1.735 8.461 4.607l41.419 64.108c1.052 1.629 1.612 3.527 1.612 5.466v10.25h21.788v-10.25c-.001-1.938-.561-3.836-1.613-5.465z" fill="#e5eef9"/><circle cx="385.778" cy="441.305" fill="#6c5e69" r="33.289"/><path d="m385.778 408.016c-3.536 0-6.941.556-10.138 1.577 13.426 4.289 23.15 16.862 23.15 31.711s-9.724 27.422-23.15 31.711c3.197 1.021 6.602 1.577 10.138 1.577 18.385 0 33.289-14.904 33.289-33.289 0-18.383-14.904-33.287-33.289-33.287z" fill="#574d56"/><circle cx="242.706" cy="441.305" fill="#6c5e69" r="33.289"/><path d="m242.706 408.016c-3.536 0-6.941.556-10.138 1.577 13.426 4.289 23.15 16.862 23.15 31.711s-9.724 27.422-23.15 31.711c3.197 1.021 6.602 1.577 10.138 1.577 18.385 0 33.289-14.904 33.289-33.289-.001-18.383-14.904-33.287-33.289-33.287z" fill="#574d56"/><circle cx="92.1" cy="441.305" fill="#6c5e69" r="33.289"/><path d="m92.1 408.016c-3.536 0-6.941.556-10.138 1.577 13.426 4.289 23.15 16.862 23.15 31.711s-9.724 27.422-23.15 31.711c3.197 1.021 6.602 1.577 10.138 1.577 18.385 0 33.289-14.904 33.289-33.289 0-18.383-14.904-33.287-33.289-33.287z" fill="#574d56"/></g></g><g><path d="m319.836 75.21c-3.782-1.689-8.217.006-9.907 3.788l-5.238 11.723c-1.689 3.782.006 8.217 3.788 9.907.994.444 2.033.654 3.056.654 2.868 0 5.605-1.654 6.852-4.442l5.238-11.723c1.688-3.782-.007-8.217-3.789-9.907z"/><path d="m467.836 281.853h-14.428c-4.143 0-7.5 3.357-7.5 7.5s3.357 7.5 7.5 7.5h14.428c4.143 0 7.5-3.357 7.5-7.5s-3.357-7.5-7.5-7.5z"/><path d="m464.33 349.79c30.764-35.165 47.67-80.129 47.67-126.969 0-106.387-86.556-192.915-192.914-192.915-106.19 0-192.915 86.369-192.915 192.915 0 1.165.011 2.334.032 3.502h-98.678c-7.777 0-14.105 6.328-14.105 14.106v59.139c0 4.143 3.357 7.5 7.5 7.5s7.5-3.357 7.5-7.5v-30.942h254.064v114.791h-254.064v-54.849c0-4.143-3.357-7.5-7.5-7.5s-7.5 3.357-7.5 7.5v54.849h-5.92c-4.143 0-7.5 3.357-7.5 7.5v20.421c0 13.503 10.985 24.489 24.489 24.489h27.189c-.242 1.792-.367 3.62-.367 5.478 0 22.491 18.298 40.789 40.789 40.789 22.49 0 40.788-18.298 40.788-40.789 0-1.857-.125-3.685-.367-5.478h69.763c-.242 1.792-.367 3.62-.367 5.478 0 22.491 18.298 40.789 40.789 40.789 22.49 0 40.788-18.298 40.788-40.789 0-1.857-.125-3.685-.367-5.478h62.229c-.242 1.792-.367 3.62-.367 5.478 0 22.491 18.298 40.789 40.789 40.789 22.49 0 40.788-18.298 40.788-40.789 0-1.857-.125-3.685-.367-5.478h24.893c9.121 0 16.542-7.421 16.542-16.543v-59.197c0-3.392-.973-6.689-2.812-9.536zm-8.496-13.149-32.432-50.198c-1.647-2.55-3.878-4.579-6.456-5.96 13.052-16.081 13.953-27.865 14.748-38.281.616-8.074 1.205-15.787 7.733-26.56 5.277 16.157 8.862 33.663 10.734 52.473.385 3.869 3.646 6.758 7.454 6.758.248 0 .499-.013.752-.038 4.121-.41 7.13-4.084 6.72-8.206-2.469-24.808-7.759-46.221-14.714-64.638 11.634-9.849 28.812-12.453 43.493-12.509 2.056 10.802 3.133 21.947 3.133 33.339.001 41.759-14.567 81.897-41.165 113.82zm12.669-210.309c9.539 14.721 16.963 30.933 21.839 48.204-18.901.545-34.451 5.009-45.959 13.149-4.541-9.828-9.544-18.67-14.778-26.604 11.638-7.463 23.408-17.737 35.554-30.945 1.151-1.252 2.267-2.521 3.344-3.804zm-327.332 96.489c0-35.029 10.177-67.726 27.727-95.29 10.951 31.253 27.412 38.387 40.153 38.387h.214c16.607-.104 29.815-5.131 42.59-9.992 17.269-6.572 32.181-12.248 53.524-4.982 6.899 2.349 13.932 5.661 21.376 9.168 5.216 2.457 10.608 4.997 16.188 7.305.938.388 1.909.572 2.864.572 2.944 0 5.737-1.745 6.934-4.635 1.583-3.828-.236-8.214-4.063-9.797-5.247-2.171-10.475-4.634-15.53-7.015-7.491-3.529-15.238-7.178-22.935-9.798-26.458-9.007-45.387-1.803-63.693 5.163-12.06 4.589-23.451 8.924-37.349 9.011-.036 0-.072 0-.108 0-16.219 0-25.006-22.866-29.159-38.804 32.625-40.93 82.892-67.206 139.181-67.206 56.986 0 107.8 26.931 140.384 68.733-1.657 2.149-3.446 4.271-5.352 6.342-12.329 13.407-23.408 22.605-33.297 28.85-8.303-10.669-16.854-19.308-24.823-26.202-29.804-25.783-57.711-33.315-58.885-33.623-4.003-1.05-8.089 1.34-9.147 5.337-1.058 3.998 1.328 8.101 5.324 9.167.259.069 26.238 7.194 53.459 30.954 7.544 6.585 14.44 13.736 20.685 21.442-13.199 5.581-23.76 5.824-31.885 5.019-4.123-.4-7.794 2.604-8.201 6.727s2.604 7.794 6.727 8.201c2.634.26 5.252.391 7.863.391 11.669 0 23.138-2.614 34.646-7.961 6.325 9.398 11.805 19.505 16.433 30.304-14.464 18.713-15.428 31.33-16.279 42.471-.761 9.962-1.361 17.831-11.997 30.652-1.538 1.855-2.943 4.1-4.195 6.695h-61.526c3.76-23.018-13.337-52.229-44.902-75.904-8.038-6.029-16.829-10.604-26.128-13.599-21.438-6.902-44.387 3.074-54.562 23.725-3.969 8.056-9.995 11.967-11.383 13.695h-60.839c-.022-1.168-.034-2.338-.034-3.503zm166.952 64.865c-3.27 1.363-6.853 2.624-10.638 3.748v-51.006c0-7.778-6.328-14.106-14.105-14.106h-60.772c1.525-2.095 2.98-4.437 4.275-7.065 6.858-13.92 22.214-20.683 36.51-16.076 7.712 2.483 15.021 6.292 21.726 11.321 27.582 20.687 43.378 46.899 38.562 63.904h-.696c-6.519 0-12.168 3.789-14.862 9.28zm-279.703-34.06v-12.303h254.064v12.303zm269.064 53.382c3.08-.812 6.08-1.71 8.957-2.682v79.09h-8.957zm-205.383 160.086c-14.22 0-25.789-11.569-25.789-25.789s11.569-25.788 25.789-25.788 25.788 11.568 25.788 25.788-11.569 25.789-25.788 25.789zm150.605 0c-14.22 0-25.789-11.569-25.789-25.789s11.569-25.788 25.789-25.788 25.788 11.568 25.788 25.788-11.568 25.789-25.788 25.789zm0-66.577c-15.032 0-28.191 8.174-35.266 20.311h-80.075c-7.075-12.136-20.233-20.311-35.265-20.311s-28.191 8.174-35.266 20.311h-32.345c-5.232 0-9.489-4.257-9.489-9.489v-12.921h291.441v22.41h-28.471c-7.074-12.137-20.232-20.311-35.264-20.311zm143.072 66.577c-14.22 0-25.789-11.569-25.789-25.789s11.569-25.788 25.789-25.788 25.788 11.568 25.788 25.788-11.568 25.789-25.788 25.789zm65.314-46.267h-30.049c-7.075-12.136-20.233-20.311-35.265-20.311s-28.191 8.174-35.266 20.311h-29.071v-125.879c0-.851.691-1.542 1.542-1.542h38.767v65.041c0 10.691 8.698 19.39 19.39 19.39h21.104c4.143 0 7.5-3.357 7.5-7.5s-3.357-7.5-7.5-7.5h-21.104c-2.421 0-4.39-1.969-4.39-4.39v-65.041h31.892c.878 0 1.686.439 2.161 1.177l41.42 64.109c.269.416.411.898.411 1.395v2.75h-21.391c-4.143 0-7.5 3.357-7.5 7.5s3.357 7.5 7.5 7.5h21.391v11.718h-7.914c-4.143 0-7.5 3.357-7.5 7.5s3.357 7.5 7.5 7.5h7.914v14.729c0 .851-.692 1.543-1.542 1.543z"/><path d="m52.406 290.548c4.143 0 7.5-3.357 7.5-7.5s-3.357-7.5-7.5-7.5h-7.927c-4.143 0-7.5 3.357-7.5 7.5v85.948c0 4.143 3.357 7.5 7.5 7.5h7.927c4.143 0 7.5-3.357 7.5-7.5s-3.357-7.5-7.5-7.5h-.427v-70.948z"/><path d="m88.076 290.548c4.143 0 7.5-3.357 7.5-7.5s-3.357-7.5-7.5-7.5h-7.927c-4.143 0-7.5 3.357-7.5 7.5v85.948c0 4.143 3.357 7.5 7.5 7.5h7.927c4.143 0 7.5-3.357 7.5-7.5s-3.357-7.5-7.5-7.5h-.427v-70.948z"/><path d="m123.746 290.548c4.143 0 7.5-3.357 7.5-7.5s-3.357-7.5-7.5-7.5h-7.927c-4.143 0-7.5 3.357-7.5 7.5v85.948c0 4.143 3.357 7.5 7.5 7.5h7.927c4.143 0 7.5-3.357 7.5-7.5s-3.357-7.5-7.5-7.5h-.427v-70.948z"/><path d="m159.415 290.548c4.143 0 7.5-3.357 7.5-7.5s-3.357-7.5-7.5-7.5h-7.926c-4.143 0-7.5 3.357-7.5 7.5v85.948c0 4.143 3.357 7.5 7.5 7.5h7.926c4.143 0 7.5-3.357 7.5-7.5s-3.357-7.5-7.5-7.5h-.426v-70.948z"/><path d="m195.085 290.548c4.143 0 7.5-3.357 7.5-7.5s-3.357-7.5-7.5-7.5h-7.927c-4.143 0-7.5 3.357-7.5 7.5v85.948c0 4.143 3.357 7.5 7.5 7.5h7.927c4.143 0 7.5-3.357 7.5-7.5s-3.357-7.5-7.5-7.5h-.427v-70.948z"/><path d="m230.755 290.548c4.143 0 7.5-3.357 7.5-7.5s-3.357-7.5-7.5-7.5h-7.927c-4.143 0-7.5 3.357-7.5 7.5v85.948c0 4.143 3.357 7.5 7.5 7.5h7.927c4.143 0 7.5-3.357 7.5-7.5s-3.357-7.5-7.5-7.5h-.427v-70.948z"/><path d="m266.425 290.548c4.143 0 7.5-3.357 7.5-7.5s-3.357-7.5-7.5-7.5h-7.927c-4.143 0-7.5 3.357-7.5 7.5v85.948c0 4.143 3.357 7.5 7.5 7.5h7.927c4.143 0 7.5-3.357 7.5-7.5s-3.357-7.5-7.5-7.5h-.427v-70.948z"/></g></g></svg>