<?xml version="1.0" encoding="UTF-8" standalone="no"?>
<!-- Created with Inkscape (http://www.inkscape.org/) -->

<svg
   version="1.1"
   id="svg2"
   xml:space="preserve"
   width="1122.52"
   height="793.70667"
   viewBox="0 0 1122.52 793.70667"
   sodipodi:docname="logo vector.ai"
   xmlns:inkscape="http://www.inkscape.org/namespaces/inkscape"
   xmlns:sodipodi="http://sodipodi.sourceforge.net/DTD/sodipodi-0.dtd"
   xmlns="http://www.w3.org/2000/svg"
   xmlns:svg="http://www.w3.org/2000/svg"><defs
     id="defs6"><clipPath
       clipPathUnits="userSpaceOnUse"
       id="clipPath16"><path
         d="M 0,595.28 H 841.89 V 0 H 0 Z"
         id="path14" /></clipPath><clipPath
       clipPathUnits="userSpaceOnUse"
       id="clipPath40"><path
         d="m 442.751,447.68 h 0.032 v -0.013 h -0.032 z"
         id="path38" /></clipPath><clipPath
       clipPathUnits="userSpaceOnUse"
       id="clipPath56"><path
         d="m 442.417,449.139 h 0.699 v -1.459 h -0.699 z"
         id="path54" /></clipPath><clipPath
       clipPathUnits="userSpaceOnUse"
       id="clipPath76"><path
         d="m 307.215,393.194 h 0.032 v -0.013 h -0.032 z"
         id="path74" /></clipPath><clipPath
       clipPathUnits="userSpaceOnUse"
       id="clipPath92"><path
         d="m 306.632,394.637 h 0.691 v -1.443 h -0.691 z"
         id="path90" /></clipPath></defs><sodipodi:namedview
     id="namedview4"
     pagecolor="#ffffff"
     bordercolor="#666666"
     borderopacity="1.0"
     inkscape:pageshadow="2"
     inkscape:pageopacity="0.0"
     inkscape:pagecheckerboard="0" /><g
     id="g8"
     inkscape:groupmode="layer"
     inkscape:label="logo vector"
     transform="matrix(1.3333333,0,0,-1.3333333,0,793.70667)"><g
       id="g10"><g
         id="g12"
         clip-path="url(#clipPath16)"><g
           id="g18"
           transform="translate(486.708,565.1501)"><path
             d="M 0,0 C -1.347,-0.014 -2.709,-0.193 -3.998,0.391 -2.664,0.281 -1.26,0.881 0,0"
             style="fill:#f2bc12;fill-opacity:1;fill-rule:nonzero;stroke:none"
             id="path20" /></g><g
           id="g22"
           transform="translate(491.9834,564.5471)"><path
             d="M 0,0 C -1.15,0.265 -2.392,-0.082 -3.493,0.518 -2.322,0.39 -1.031,1.071 0,0"
             style="fill:#f2bc12;fill-opacity:1;fill-rule:nonzero;stroke:none"
             id="path24" /></g><g
           id="g26"
           transform="translate(450.1992,563.969)"><path
             d="M 0,0 -1.397,0.187 C -0.842,0.791 -0.361,0.838 0,0"
             style="fill:#f2bc12;fill-opacity:1;fill-rule:nonzero;stroke:none"
             id="path28" /></g><g
           id="g30"
           transform="translate(492.0059,564.1511)"><path
             d="M 0,0 C -0.072,0.136 -0.104,0.28 -0.096,0.434 0.261,0.361 0.354,0.23 0,0"
             style="fill:#f2bc12;fill-opacity:1;fill-rule:nonzero;stroke:none"
             id="path32" /></g><g
           id="g34"><g
             id="g36" /><g
             id="g48"><g
               clip-path="url(#clipPath40)"
               opacity="0.600006"
               id="g46"><g
                 transform="translate(442.751,447.6667)"
                 id="g44"><path
                   d="M 0,0 0.031,0.003 0.026,0.013 Z"
                   style="fill:#ffffff;fill-opacity:1;fill-rule:nonzero;stroke:none"
                   id="path42" /></g></g></g></g><g
           id="g50"><g
             id="g52" /><g
             id="g64"><g
               clip-path="url(#clipPath56)"
               opacity="0.600006"
               id="g62"><g
                 transform="translate(443.1162,447.7248)"
                 id="g60"><path
                   d="m 0,0 -0.699,1.414 0.617,-1.459 z"
                   style="fill:#ffffff;fill-opacity:1;fill-rule:nonzero;stroke:none"
                   id="path58" /></g></g></g></g><g
           id="g66"
           transform="translate(440.5049,368.1867)"><path
             d="M 0,0 C 0,0 1.603,-0.156 4.523,-0.281 4.424,-0.166 4.334,-0.042 4.233,0.074 1.516,-0.038 0,0 0,0"
             style="fill:#ffffff;fill-opacity:1;fill-rule:nonzero;stroke:none"
             id="path68" /></g><g
           id="g70"><g
             id="g72" /><g
             id="g84"><g
               clip-path="url(#clipPath76)"
               opacity="0.600006"
               id="g82"><g
                 transform="translate(307.2153,393.1809)"
                 id="g80"><path
                   d="M 0,0 0.031,0.003 0.026,0.013 Z"
                   style="fill:#ffffff;fill-opacity:1;fill-rule:nonzero;stroke:none"
                   id="path78" /></g></g></g></g><g
           id="g86"><g
             id="g88" /><g
             id="g100"><g
               clip-path="url(#clipPath92)"
               opacity="0.600006"
               id="g98"><g
                 transform="translate(307.3228,393.2385)"
                 id="g96"><path
                   d="m 0,0 -0.691,1.398 0.609,-1.442 z"
                   style="fill:#ffffff;fill-opacity:1;fill-rule:nonzero;stroke:none"
                   id="path94" /></g></g></g></g><g
           id="g102"
           transform="translate(481.9844,143.1237)"><path
             d="m 0,0 c -6.296,5.901 -15.677,9.18 -23.85,9.18 -20.098,0 -32.293,-14.951 -32.293,-33.834 0,-15.082 8.978,-30.688 32.293,-30.688 7.37,0 13.801,1.574 21.171,7.345 v 16.26 h -23.985 v 15.475 H 13.534 V -54.947 C 4.288,-65.309 -7.369,-71.472 -23.85,-71.472 c -35.24,0 -49.577,22.687 -49.577,46.818 0,25.835 16.481,49.701 49.577,49.701 12.595,0 25.191,-4.721 34.837,-14.031 z"
             style="fill:#f1ba06;fill-opacity:1;fill-rule:nonzero;stroke:none"
             id="path104" /></g><g
           id="g106"
           transform="translate(564.1133,73.7507)"><path
             d="M 0,0 H -52.641 V 68.823 H 0 V 56.238 H -39.48 V 40.41 H -1.406 V 28.316 H -39.48 V 12.78 l 39.48,0 z"
             style="fill:#f1ba06;fill-opacity:1;fill-rule:nonzero;stroke:none"
             id="path108" /></g><g
           id="g110"
           transform="translate(608.4238,128.1218)"><path
             d="M 0,0 -13.059,-29.301 H 13.062 Z M 18.384,-41.393 H -18.384 L -24.41,-54.371 H -38.776 L -7.232,14.452 H 7.232 L 38.778,-54.371 H 24.312 Z"
             style="fill:#f1ba06;fill-opacity:1;fill-rule:nonzero;stroke:none"
             id="path112" /></g><g
           id="g114"
           transform="translate(669.0098,130.4821)"><path
             d="m 0,0 v -22.024 h 20.192 c 8.439,0 12.056,5.504 12.056,11.01 C 32.248,-5.507 28.532,0 20.192,0 Z M 49.026,-56.731 H 33.254 L 12.76,-33.724 H 0 V -56.731 H -13.259 V 12.19 c 11.152,0 22.303,-0.098 33.451,-0.098 16.579,-0.097 25.318,-10.912 25.318,-22.81 0,-9.439 -4.421,-18.976 -17.781,-21.63 l 21.297,-23.499 z"
             style="fill:#f1ba06;fill-opacity:1;fill-rule:nonzero;stroke:none"
             id="path116" /></g><g
           id="g118"
           transform="translate(146.8052,178.737)"><path
             d="M 0,0 V 92.124 H 11.839 V 10.051 H 45.658 V 0 Z"
             style="fill:#294b98;fill-opacity:1;fill-rule:nonzero;stroke:none"
             id="path120" /></g><g
           id="g122"
           transform="translate(146.8052,178.737)"><path
             d="M 0,0 V 92.124 H 11.839 V 10.051 H 45.658 V 0 Z"
             style="fill:none;stroke:#294b98;stroke-width:0.5;stroke-linecap:butt;stroke-linejoin:miter;stroke-miterlimit:10;stroke-dasharray:none;stroke-opacity:1"
             id="path124" /></g><g
           id="g126"
           transform="translate(253.0156,241.2038)"><path
             d="m 0,0 c -7.523,0 -14.031,-2.697 -19.524,-8.089 -5.496,-5.394 -8.243,-11.965 -8.243,-19.712 0,-7.809 2.747,-14.404 8.243,-19.783 5.493,-5.376 12.001,-8.064 19.524,-8.064 7.556,0 14.08,2.688 19.576,8.064 5.493,5.379 8.242,11.974 8.242,19.783 0,7.747 -2.749,14.318 -8.242,19.712 C 14.08,-2.697 7.556,0 0,0 m 26.075,-2.88 c 7.115,-6.979 10.672,-15.287 10.672,-24.921 0,-9.699 -3.557,-18.03 -10.672,-24.992 C 18.962,-59.755 10.27,-63.235 0,-63.235 c -10.236,0 -18.913,3.48 -26.026,10.442 -7.113,6.962 -10.67,15.293 -10.67,24.992 0,9.634 3.557,17.942 10.67,24.921 7.113,6.977 15.79,10.467 26.026,10.467 10.27,0 18.962,-3.49 26.075,-10.467"
             style="fill:#294b98;fill-opacity:1;fill-rule:nonzero;stroke:none"
             id="path128" /></g><g
           id="g130"
           transform="translate(253.0156,241.2038)"><path
             d="m 0,0 c -7.523,0 -14.031,-2.697 -19.524,-8.089 -5.496,-5.394 -8.243,-11.965 -8.243,-19.712 0,-7.809 2.747,-14.404 8.243,-19.783 5.493,-5.376 12.001,-8.064 19.524,-8.064 7.556,0 14.08,2.688 19.576,8.064 5.493,5.379 8.242,11.974 8.242,19.783 0,7.747 -2.749,14.318 -8.242,19.712 C 14.08,-2.697 7.556,0 0,0 Z m 26.075,-2.88 c 7.115,-6.979 10.672,-15.287 10.672,-24.921 0,-9.699 -3.557,-18.03 -10.672,-24.992 C 18.962,-59.755 10.27,-63.235 0,-63.235 c -10.236,0 -18.913,3.48 -26.026,10.442 -7.113,6.962 -10.67,15.293 -10.67,24.992 0,9.634 3.557,17.942 10.67,24.921 7.113,6.977 15.79,10.467 26.026,10.467 10.27,0 18.962,-3.49 26.075,-10.467 z"
             style="fill:none;stroke:#294b98;stroke-width:0.5;stroke-linecap:butt;stroke-linejoin:miter;stroke-miterlimit:10;stroke-dasharray:none;stroke-opacity:1"
             id="path132" /></g><path
           d="m 403.996,178.737 h -8.879 v 69.094 h 8.879 z"
           style="fill:#294b98;fill-opacity:1;fill-rule:nonzero;stroke:#294b98;stroke-width:0.5;stroke-linecap:butt;stroke-linejoin:miter;stroke-miterlimit:10;stroke-dasharray:none;stroke-opacity:1"
           id="path134" /><g
           id="g136"
           transform="translate(448.1123,215.0847)"><path
             d="m 0,0 c -5.07,1.632 -9.143,3.952 -12.215,6.962 -3.075,3.008 -4.612,6.641 -4.612,10.898 0,4.161 1.593,7.819 4.783,10.971 3.19,3.153 7.153,4.73 11.896,4.73 4.676,0 8.683,-1.617 12.019,-4.848 1.734,-1.665 3.091,-4.003 4.072,-7.011 L 7.997,18.677 c -0.982,2.594 -1.864,4.273 -2.649,5.042 -1.605,1.6 -3.436,2.4 -5.496,2.4 -2.027,0 -3.833,-0.777 -5.419,-2.33 -1.589,-1.552 -2.38,-3.526 -2.38,-5.929 0,-2.369 0.816,-4.385 2.451,-6.05 1.701,-1.601 4.025,-3.072 6.968,-4.416 5.626,-1.792 10.334,-4.547 14.13,-8.259 4.347,-4.225 6.523,-9.219 6.523,-14.981 0,-5.761 -2.15,-10.749 -6.449,-14.956 -4.302,-4.21 -9.577,-6.314 -15.824,-6.314 -6.279,0 -11.595,2.16 -15.943,6.481 -3.402,3.296 -5.496,7.57 -6.281,12.822 l 8.537,3.024 c 0.522,-5.026 1.978,-8.69 4.366,-10.995 2.616,-2.563 5.724,-3.842 9.321,-3.842 3.63,0 6.795,1.321 9.493,3.961 2.7,2.642 4.047,5.913 4.047,9.819 0,3.907 -1.323,7.154 -3.973,9.747 C 6.737,-3.505 3.598,-1.473 0,0"
             style="fill:#294b98;fill-opacity:1;fill-rule:nonzero;stroke:none"
             id="path138" /></g><g
           id="g140"
           transform="translate(448.1123,215.0847)"><path
             d="m 0,0 c -5.07,1.632 -9.143,3.952 -12.215,6.962 -3.075,3.008 -4.612,6.641 -4.612,10.898 0,4.161 1.593,7.819 4.783,10.971 3.19,3.153 7.153,4.73 11.896,4.73 4.676,0 8.683,-1.617 12.019,-4.848 1.734,-1.665 3.091,-4.003 4.072,-7.011 L 7.997,18.677 c -0.982,2.594 -1.864,4.273 -2.649,5.042 -1.605,1.6 -3.436,2.4 -5.496,2.4 -2.027,0 -3.833,-0.777 -5.419,-2.33 -1.589,-1.552 -2.38,-3.526 -2.38,-5.929 0,-2.369 0.816,-4.385 2.451,-6.05 1.701,-1.601 4.025,-3.072 6.968,-4.416 5.626,-1.792 10.334,-4.547 14.13,-8.259 4.347,-4.225 6.523,-9.219 6.523,-14.981 0,-5.761 -2.15,-10.749 -6.449,-14.956 -4.302,-4.21 -9.577,-6.314 -15.824,-6.314 -6.279,0 -11.595,2.16 -15.943,6.481 -3.402,3.296 -5.496,7.57 -6.281,12.822 l 8.537,3.024 c 0.522,-5.026 1.978,-8.69 4.366,-10.995 2.616,-2.563 5.724,-3.842 9.321,-3.842 3.63,0 6.795,1.321 9.493,3.961 2.7,2.642 4.047,5.913 4.047,9.819 0,3.907 -1.323,7.154 -3.973,9.747 C 6.737,-3.505 3.598,-1.473 0,0 Z"
             style="fill:none;stroke:#294b98;stroke-width:0.5;stroke-linecap:butt;stroke-linejoin:miter;stroke-miterlimit:10;stroke-dasharray:none;stroke-opacity:1"
             id="path142" /></g><g
           id="g144"
           transform="translate(513.2744,240.2917)"><path
             d="M 0,0 V -61.555 H -8.83 V 0 h -16.876 v 7.539 h 42.533 l 0,-7.539 z"
             style="fill:#294b98;fill-opacity:1;fill-rule:nonzero;stroke:none"
             id="path146" /></g><g
           id="g148"
           transform="translate(513.2744,240.2917)"><path
             d="M 0,0 V -61.555 H -8.83 V 0 h -16.876 v 7.539 h 42.533 l 0,-7.539 z"
             style="fill:none;stroke:#294b98;stroke-width:0.5;stroke-linecap:butt;stroke-linejoin:miter;stroke-miterlimit:10;stroke-dasharray:none;stroke-opacity:1"
             id="path150" /></g><path
           d="m 559.599,178.737 h -8.88 v 69.094 h 8.88 z"
           style="fill:#294b98;fill-opacity:1;fill-rule:nonzero;stroke:#294b98;stroke-width:0.5;stroke-linecap:butt;stroke-linejoin:miter;stroke-miterlimit:10;stroke-dasharray:none;stroke-opacity:1"
           id="path152" /><g
           id="g154"
           transform="translate(638.9893,193.9568)"><path
             d="m 0,0 6.182,-5.376 c -7.948,-7.076 -16.699,-10.612 -26.248,-10.612 -10.27,0 -18.945,3.466 -26.027,10.394 -7.081,6.931 -10.62,15.246 -10.62,24.946 0,9.601 3.539,17.892 10.62,24.87 7.082,6.979 15.757,10.466 26.027,10.466 9.549,0 18.3,-3.55 26.248,-10.658 L 0,38.653 c -6.477,5.602 -13.165,8.403 -20.066,8.403 -7.523,0 -14.023,-2.682 -19.5,-8.043 -5.48,-5.362 -8.218,-11.916 -8.218,-19.661 0,-7.813 2.738,-14.389 8.218,-19.735 5.477,-5.347 11.977,-8.018 19.5,-8.018 6.901,0 13.589,2.8 20.066,8.401"
             style="fill:#294b98;fill-opacity:1;fill-rule:nonzero;stroke:none"
             id="path156" /></g><g
           id="g158"
           transform="translate(638.9893,193.9568)"><path
             d="m 0,0 6.182,-5.376 c -7.948,-7.076 -16.699,-10.612 -26.248,-10.612 -10.27,0 -18.945,3.466 -26.027,10.394 -7.081,6.931 -10.62,15.246 -10.62,24.946 0,9.601 3.539,17.892 10.62,24.87 7.082,6.979 15.757,10.466 26.027,10.466 9.549,0 18.3,-3.55 26.248,-10.658 L 0,38.653 c -6.477,5.602 -13.165,8.403 -20.066,8.403 -7.523,0 -14.023,-2.682 -19.5,-8.043 -5.48,-5.362 -8.218,-11.916 -8.218,-19.661 0,-7.813 2.738,-14.389 8.218,-19.735 5.477,-5.347 11.977,-8.018 19.5,-8.018 6.901,0 13.589,2.8 20.066,8.401 z"
             style="fill:none;stroke:#294b98;stroke-width:0.5;stroke-linecap:butt;stroke-linejoin:miter;stroke-miterlimit:10;stroke-dasharray:none;stroke-opacity:1"
             id="path160" /></g><g
           id="g162"
           transform="translate(686.3906,215.0847)"><path
             d="m 0,0 c -5.07,1.632 -9.143,3.952 -12.216,6.962 -3.075,3.008 -4.611,6.641 -4.611,10.898 0,4.161 1.593,7.819 4.782,10.971 3.191,3.153 7.154,4.73 11.897,4.73 4.676,0 8.683,-1.617 12.019,-4.848 1.734,-1.665 3.091,-4.003 4.071,-7.011 L 7.997,18.677 c -0.983,2.594 -1.865,4.273 -2.649,5.042 -1.605,1.6 -3.436,2.4 -5.496,2.4 -2.028,0 -3.833,-0.777 -5.42,-2.33 -1.588,-1.552 -2.38,-3.526 -2.38,-5.929 0,-2.369 0.816,-4.385 2.452,-6.05 1.701,-1.601 4.024,-3.072 6.967,-4.416 5.627,-1.792 10.335,-4.547 14.13,-8.259 4.348,-4.225 6.524,-9.219 6.524,-14.981 0,-5.761 -2.151,-10.749 -6.45,-14.956 -4.301,-4.21 -9.576,-6.314 -15.823,-6.314 -6.28,0 -11.595,2.16 -15.944,6.481 -3.401,3.296 -5.495,7.57 -6.28,12.822 l 8.537,3.024 c 0.522,-5.026 1.978,-8.69 4.366,-10.995 2.616,-2.563 5.723,-3.842 9.321,-3.842 3.63,0 6.795,1.321 9.493,3.961 2.699,2.642 4.047,5.913 4.047,9.819 0,3.907 -1.323,7.154 -3.973,9.747 C 6.737,-3.505 3.597,-1.473 0,0"
             style="fill:#294b98;fill-opacity:1;fill-rule:nonzero;stroke:none"
             id="path164" /></g><g
           id="g166"
           transform="translate(686.3906,215.0847)"><path
             d="m 0,0 c -5.07,1.632 -9.143,3.952 -12.216,6.962 -3.075,3.008 -4.611,6.641 -4.611,10.898 0,4.161 1.593,7.819 4.782,10.971 3.191,3.153 7.154,4.73 11.897,4.73 4.676,0 8.683,-1.617 12.019,-4.848 1.734,-1.665 3.091,-4.003 4.071,-7.011 L 7.997,18.677 c -0.983,2.594 -1.865,4.273 -2.649,5.042 -1.605,1.6 -3.436,2.4 -5.496,2.4 -2.028,0 -3.833,-0.777 -5.42,-2.33 -1.588,-1.552 -2.38,-3.526 -2.38,-5.929 0,-2.369 0.816,-4.385 2.452,-6.05 1.701,-1.601 4.024,-3.072 6.967,-4.416 5.627,-1.792 10.335,-4.547 14.13,-8.259 4.348,-4.225 6.524,-9.219 6.524,-14.981 0,-5.761 -2.151,-10.749 -6.45,-14.956 -4.301,-4.21 -9.576,-6.314 -15.823,-6.314 -6.28,0 -11.595,2.16 -15.944,6.481 -3.401,3.296 -5.495,7.57 -6.28,12.822 l 8.537,3.024 c 0.522,-5.026 1.978,-8.69 4.366,-10.995 2.616,-2.563 5.723,-3.842 9.321,-3.842 3.63,0 6.795,1.321 9.493,3.961 2.699,2.642 4.047,5.913 4.047,9.819 0,3.907 -1.323,7.154 -3.973,9.747 C 6.737,-3.505 3.597,-1.473 0,0 Z"
             style="fill:none;stroke:#294b98;stroke-width:0.5;stroke-linecap:butt;stroke-linejoin:miter;stroke-miterlimit:10;stroke-dasharray:none;stroke-opacity:1"
             id="path168" /></g><g
           id="g170"
           transform="translate(362.5283,190.8376)"><path
             d="m 0,0 c -4.481,-3.523 -9.943,-5.282 -16.386,-5.282 -7.523,0 -14.022,2.671 -19.5,8.018 -5.48,5.346 -8.218,11.922 -8.218,19.735 0,7.745 2.738,14.3 8.218,19.661 5.478,5.361 11.977,8.043 19.5,8.043 6.902,0 13.59,-2.801 20.067,-8.403 l 6.181,5.377 c -7.947,7.108 -16.698,10.659 -26.248,10.659 -10.269,0 -18.944,-3.488 -26.026,-10.467 -7.081,-6.978 -10.62,-15.269 -10.62,-24.87 0,-9.7 3.539,-18.015 10.62,-24.946 7.082,-6.928 15.757,-10.394 26.026,-10.394 9.583,0 17.988,3.392 25.218,10.179 v 23.718 l -8.832,0 z"
             style="fill:#294b98;fill-opacity:1;fill-rule:nonzero;stroke:none"
             id="path172" /></g><g
           id="g174"
           transform="translate(362.5283,190.8376)"><path
             d="m 0,0 c -4.481,-3.523 -9.943,-5.282 -16.386,-5.282 -7.523,0 -14.022,2.671 -19.5,8.018 -5.48,5.346 -8.218,11.922 -8.218,19.735 0,7.745 2.738,14.3 8.218,19.661 5.478,5.361 11.977,8.043 19.5,8.043 6.902,0 13.59,-2.801 20.067,-8.403 l 6.181,5.377 c -7.947,7.108 -16.698,10.659 -26.248,10.659 -10.269,0 -18.944,-3.488 -26.026,-10.467 -7.081,-6.978 -10.62,-15.269 -10.62,-24.87 0,-9.7 3.539,-18.015 10.62,-24.946 7.082,-6.928 15.757,-10.394 26.026,-10.394 9.583,0 17.988,3.392 25.218,10.179 v 23.718 l -8.832,0 z"
             style="fill:none;stroke:#294b98;stroke-width:0.5;stroke-linecap:butt;stroke-linejoin:miter;stroke-miterlimit:10;stroke-dasharray:none;stroke-opacity:1"
             id="path176" /></g><path
           d="m 372.391,204.248 h -24.23 v 9.036 h 24.23 z"
           style="fill:#294b98;fill-opacity:1;fill-rule:nonzero;stroke:#294b98;stroke-width:0.05;stroke-linecap:butt;stroke-linejoin:miter;stroke-miterlimit:10;stroke-dasharray:none;stroke-opacity:1"
           id="path178" /><g
           id="g180"
           transform="translate(264.7197,314.5954)"><path
             d="M 0,0 C 0,0 1.584,-0.154 4.472,-0.278 4.374,-0.165 4.285,-0.042 4.186,0.073 1.498,-0.038 0,0 0,0"
             style="fill:#ffffff;fill-opacity:1;fill-rule:nonzero;stroke:none"
             id="path182" /></g><g
           id="g184"
           transform="translate(329.5801,315.2131)"><path
             d="m 0,0 c -11.046,-1.043 -21.565,-0.488 -31.218,-0.645 -9.657,0.62 -18.512,0.958 -26.276,2.215 -7.798,0.861 -14.495,2.279 -20.017,3.296 -5.838,1.302 -10.222,2.526 -13.097,3.397 13.788,-28.105 41.295,-49.079 75.235,-53.438 29.31,-3.765 57.236,5.68 77.675,23.557 C 51.735,-14.477 42.336,-5.905 34.286,3.733 28.429,2.899 22.66,2.078 17.019,1.274 11.241,0.58 5.523,0.432 0,0"
             style="fill:#294b98;fill-opacity:1;fill-rule:nonzero;stroke:none"
             id="path186" /></g><g
           id="g188"
           transform="translate(252.3188,321.3913)"><path
             d="m 0,0 c 5.554,-0.68 12.257,-1.685 20.034,-2.07 7.737,-0.766 16.53,-0.542 26.062,-0.89 9.546,0.512 19.904,0.336 30.766,1.771 5.43,0.627 11.038,0.973 16.702,1.868 4.481,0.727 9.092,1.475 13.714,2.225 -20.025,26.624 -29.997,60.541 -25.255,95.911 1.814,13.523 5.654,26.3 11.169,38.083 -1.965,0.373 -3.907,0.802 -5.92,1.06 C 33.858,144.819 -15.125,108.001 -22.135,55.724 -24.671,36.812 -21.298,18.5 -13.518,2.462 -13.259,2.407 -13.052,2.359 -12.769,2.301 -9.863,1.581 -5.493,0.97 0,0"
             style="fill:#294b98;fill-opacity:1;fill-rule:nonzero;stroke:none"
             id="path190" /></g><g
           id="g192"
           transform="translate(399.0552,332.7082)"><path
             d="m 0,0 c 5.971,1.839 11.988,3.692 18.031,5.553 6.02,1.917 12.176,3.516 18.016,6.015 5.937,2.231 11.874,4.462 17.789,6.683 l 8.857,3.322 8.545,3.905 c 5.67,2.614 11.295,5.206 16.852,7.768 5.581,2.521 11.082,5.035 16.204,8.06 10.372,5.802 20.539,11.178 30.151,16.354 9.221,5.821 17.936,11.324 25.982,16.404 4.034,2.536 7.901,4.966 11.576,7.278 3.539,2.509 6.893,4.889 10.046,7.126 6.299,4.502 11.79,8.426 16.313,11.658 4.986,3.505 8.752,6.153 11.187,7.865 -14.768,48.758 -57.605,86.951 -112.449,93.995 -60.481,7.768 -116.869,-24.725 -141.014,-76.302 -5.516,-11.784 -9.356,-24.56 -11.169,-38.083 -4.662,-34.768 4.905,-68.125 24.249,-94.539 4.232,0.787 8.466,1.731 12.745,2.725 C -12.124,-2.824 -6.086,-1.417 0,0"
             style="fill:#f1ba06;fill-opacity:1;fill-rule:nonzero;stroke:none"
             id="path194" /></g><g
           id="g196"
           transform="translate(365.1372,392.7019)"><path
             d="m 0,0 c -2.009,0.174 -4.463,0.324 -7.363,0.451 -2.9,0.126 -5.757,0.203 -8.575,0.234 0.006,0.526 0.011,0.926 0.011,1.202 l -0.011,1.063 7.396,-0.366 6.979,-0.274 0.011,2.17 c 0,1.614 -0.005,2.752 -0.018,3.411 C -1.582,8.549 -1.606,9.188 -1.645,9.806 -1.152,9.76 -0.603,9.72 0.002,9.692 -0.014,7.961 -0.022,6.433 -0.022,5.108 Z"
             style="fill:#294b98;fill-opacity:1;fill-rule:nonzero;stroke:none"
             id="path198" /></g><g
           id="g200"
           transform="translate(352.0894,416.9226)"><path
             d="m 0,0 c -0.142,-0.902 -0.126,-1.781 0.045,-2.631 0.171,-0.85 0.536,-1.622 1.096,-2.318 0.562,-0.696 1.262,-1.255 2.101,-1.678 0.839,-0.42 1.739,-0.705 2.699,-0.848 0.893,-0.132 1.771,-0.116 2.632,0.047 0.864,0.165 1.614,0.484 2.245,0.962 0.633,0.475 1.143,1.085 1.53,1.829 0.387,0.744 0.648,1.542 0.778,2.391 0.138,0.874 0.124,1.731 -0.036,2.568 C 12.929,1.158 12.584,1.911 12.056,2.581 11.525,3.248 10.843,3.787 10.011,4.197 9.179,4.606 8.281,4.881 7.32,5.024 6.412,5.161 5.525,5.163 4.659,5.033 3.793,4.906 3.026,4.606 2.355,4.142 1.685,3.675 1.156,3.081 0.774,2.358 0.389,1.638 0.133,0.852 0,0 m -1.527,0.354 c 0.173,1.117 0.504,2.149 0.989,3.103 0.486,0.951 1.17,1.752 2.052,2.404 0.88,0.652 1.82,1.068 2.817,1.251 C 5.327,7.294 6.38,7.303 7.489,7.138 8.675,6.962 9.784,6.612 10.821,6.088 11.858,5.562 12.699,4.866 13.342,4 c 0.646,-0.867 1.074,-1.877 1.283,-3.036 0.209,-1.155 0.22,-2.34 0.031,-3.553 -0.177,-1.152 -0.524,-2.23 -1.034,-3.239 C 13.111,-6.834 12.438,-7.655 11.601,-8.293 10.767,-8.932 9.835,-9.346 8.81,-9.531 7.786,-9.718 6.727,-9.729 5.633,-9.566 c -1.199,0.178 -2.321,0.55 -3.363,1.114 -1.041,0.563 -1.885,1.292 -2.524,2.184 -0.641,0.894 -1.059,1.92 -1.258,3.078 -0.197,1.158 -0.204,2.34 -0.015,3.544"
             style="fill:#294b98;fill-opacity:1;fill-rule:nonzero;stroke:none"
             id="path202" /></g><g
           id="g204"
           transform="translate(363.6479,438.9177)"><path
             d="M 0,0 C 0.445,1.244 0.785,2.202 1.021,2.871 1.271,3.584 1.55,4.39 1.856,5.287 4,4.381 6.616,3.369 9.703,2.246 9.415,-0.097 8.999,-2.041 8.456,-3.589 8.054,-4.733 7.516,-5.779 6.848,-6.726 6.177,-7.67 5.406,-8.399 4.535,-8.913 3.665,-9.423 2.679,-9.698 1.579,-9.734 c -1.1,-0.037 -2.191,0.126 -3.273,0.491 -1.228,0.414 -2.306,1.033 -3.23,1.856 -0.927,0.822 -1.611,1.773 -2.056,2.847 -0.446,1.077 -0.644,2.189 -0.597,3.332 0.05,1.144 0.295,2.346 0.738,3.608 0.486,1.383 1.215,2.86 2.189,4.434 C -4.094,6.663 -3.485,6.5 -2.823,6.341 -3.516,5.447 -4.056,4.652 -4.443,3.961 -4.83,3.27 -5.134,2.614 -5.352,1.995 -5.694,1.021 -5.869,0.046 -5.88,-0.934 c -0.01,-0.979 0.182,-1.884 0.575,-2.718 0.394,-0.835 0.988,-1.566 1.78,-2.196 0.792,-0.627 1.669,-1.105 2.634,-1.428 0.862,-0.291 1.714,-0.432 2.562,-0.423 0.846,0.009 1.602,0.2 2.268,0.572 0.666,0.372 1.262,0.898 1.786,1.581 0.522,0.683 0.943,1.473 1.26,2.374 0.171,0.49 0.331,1.089 0.477,1.796 0.146,0.709 0.229,1.447 0.252,2.213 L 2.567,2.81 2.209,1.794 C 1.973,1.116 1.716,0.333 1.444,-0.559 0.929,-0.337 0.448,-0.149 0,0"
             style="fill:#294b98;fill-opacity:1;fill-rule:nonzero;stroke:none"
             id="path206" /></g><g
           id="g208"
           transform="translate(376.4438,446.2956)"><path
             d="m 0,0 -2.337,1.308 -4.916,2.62 -4.879,2.512 c -0.284,0.143 -0.57,0.284 -0.857,0.423 l -1.074,0.502 0.538,1.052 0.488,1.002 C -11.35,8.459 -9.57,7.493 -7.698,6.521 -4.704,4.954 -1.795,3.463 1.026,2.054 L 0.521,1.099 C 0.461,0.976 0.288,0.608 0,0"
             style="fill:#294b98;fill-opacity:1;fill-rule:nonzero;stroke:none"
             id="path210" /></g><g
           id="g212"
           transform="translate(379.7549,453.634)"><path
             d="M 0,0 C -0.646,0.354 -1.219,0.643 -1.718,0.865 -0.954,1.352 -0.331,1.828 0.151,2.294 0.632,2.759 1.033,3.245 1.352,3.75 1.658,4.236 1.861,4.74 1.955,5.26 2.05,5.779 2.009,6.237 1.836,6.636 1.661,7.032 1.375,7.352 0.977,7.591 0.745,7.73 0.506,7.827 0.259,7.878 0.011,7.928 -0.268,7.937 -0.576,7.904 -0.884,7.871 -1.34,7.768 -1.941,7.589 -2.544,7.411 -3.383,7.151 -4.458,6.808 L -5.541,6.466 C -5.95,6.339 -6.341,6.235 -6.717,6.158 -7.09,6.079 -7.433,6.03 -7.741,6.013 c -0.31,-0.02 -0.578,-0.015 -0.805,0.008 -0.227,0.025 -0.461,0.08 -0.706,0.166 -0.244,0.084 -0.477,0.196 -0.702,0.332 -0.569,0.344 -1.008,0.819 -1.312,1.422 -0.303,0.606 -0.412,1.306 -0.324,2.099 0.09,0.793 0.45,1.691 1.087,2.695 0.452,0.72 1.111,1.543 1.973,2.474 0.434,-0.246 0.985,-0.517 1.655,-0.814 -0.983,-0.775 -1.732,-1.568 -2.243,-2.378 -0.353,-0.557 -0.553,-1.081 -0.602,-1.57 -0.05,-0.489 0.011,-0.92 0.182,-1.292 0.168,-0.372 0.409,-0.652 0.72,-0.839 0.184,-0.112 0.38,-0.194 0.589,-0.249 0.209,-0.055 0.425,-0.077 0.648,-0.07 0.326,0.008 0.677,0.052 1.051,0.129 0.375,0.08 0.854,0.212 1.437,0.395 0.139,0.05 0.686,0.233 1.635,0.55 0.952,0.315 1.67,0.531 2.153,0.645 0.484,0.115 0.909,0.183 1.274,0.203 C 0.335,9.941 0.695,9.91 1.051,9.829 1.409,9.749 1.757,9.604 2.102,9.395 2.632,9.076 3.051,8.668 3.356,8.173 3.663,7.68 3.825,7.138 3.845,6.548 3.867,5.958 3.775,5.37 3.57,4.787 3.366,4.201 3.089,3.631 2.736,3.074 2.455,2.626 2.128,2.187 1.757,1.75 1.386,1.316 0.801,0.733 0,0"
             style="fill:#294b98;fill-opacity:1;fill-rule:nonzero;stroke:none"
             id="path214" /></g><g
           id="g216"
           transform="translate(390.1572,467.9563)"><path
             d="M 0,0 -2.634,2.374 -8.202,7.16 -10.8,9.339 c -1.19,-1.457 -2.209,-2.75 -3.06,-3.879 -0.454,0.418 -0.866,0.777 -1.23,1.075 1.246,1.501 2.587,3.124 4.024,4.867 l 2.336,2.854 1.243,1.513 c 0.504,-0.465 0.914,-0.824 1.231,-1.073 -0.81,-0.878 -1.676,-1.873 -2.594,-2.988 L -9.451,10.978 -5.579,7.618 -0.065,2.961 1.453,1.764 0.731,0.922 C 0.666,0.845 0.423,0.539 0,0"
             style="fill:#294b98;fill-opacity:1;fill-rule:nonzero;stroke:none"
             id="path218" /></g><g
           id="g220"
           transform="translate(398.0039,476.761)"><path
             d="m 0,0 -1.789,1.97 -3.804,4.018 -3.803,3.908 c -0.223,0.225 -0.446,0.447 -0.673,0.667 l -0.855,0.811 0.853,0.83 0.789,0.797 c 1.284,-1.438 2.657,-2.909 4.113,-4.415 2.325,-2.421 4.598,-4.742 6.811,-6.959 L 0.853,0.878 C 0.756,0.781 0.47,0.489 0,0"
             style="fill:#294b98;fill-opacity:1;fill-rule:nonzero;stroke:none"
             id="path222" /></g><g
           id="g224"
           transform="translate(412.4644,491.8845)"><path
             d="m 0,0 c 0.27,-0.498 0.578,-1.022 0.924,-1.577 -0.996,-1.18 -1.992,-2.162 -2.985,-2.945 -0.884,-0.701 -1.847,-1.242 -2.888,-1.63 -1.042,-0.387 -2.094,-0.546 -3.158,-0.475 -1.062,0.07 -2.043,0.367 -2.936,0.896 -0.895,0.526 -1.697,1.215 -2.401,2.069 -0.751,0.914 -1.323,1.916 -1.714,3.008 -0.391,1.092 -0.515,2.179 -0.376,3.265 0.142,1.085 0.534,2.125 1.179,3.12 0.646,0.995 1.454,1.876 2.421,2.64 1.041,0.823 2.168,1.539 3.381,2.142 0.254,-0.295 0.666,-0.729 1.237,-1.299 -0.839,-0.328 -1.523,-0.647 -2.051,-0.951 -0.529,-0.306 -1.006,-0.625 -1.429,-0.96 -0.72,-0.571 -1.323,-1.224 -1.804,-1.962 -0.482,-0.739 -0.781,-1.546 -0.898,-2.422 -0.119,-0.876 -0.026,-1.766 0.272,-2.67 0.302,-0.903 0.761,-1.729 1.375,-2.475 0.574,-0.693 1.224,-1.266 1.953,-1.72 0.729,-0.453 1.491,-0.718 2.292,-0.794 0.799,-0.08 1.6,0.009 2.398,0.264 0.801,0.255 1.582,0.684 2.347,1.288 C -1.899,-2.426 -0.945,-1.365 0,0"
             style="fill:#294b98;fill-opacity:1;fill-rule:nonzero;stroke:none"
             id="path226" /></g><g
           id="g228"
           transform="translate(417.5439,502.2629)"><path
             d="M 0,0 4.544,2.57 -0.425,6.744 Z M -1.361,-10.073 -1.53,-5.627 -2.137,6 -2.256,7.437 -1.078,8.091 c 0.365,0.205 0.759,0.432 1.179,0.679 l 4.612,-3.86 8.344,-6.832 -0.972,-0.522 c -0.183,-0.103 -0.54,-0.314 -1.071,-0.632 -0.556,0.531 -1.397,1.278 -2.527,2.24 C 7.358,0.128 6.427,0.898 5.698,1.482 L 0.173,-1.642 0.457,-5.429 0.763,-8.871 -0.286,-9.438 c -0.169,-0.095 -0.528,-0.307 -1.075,-0.635"
             style="fill:#294b98;fill-opacity:1;fill-rule:nonzero;stroke:none"
             id="path230" /></g><g
           id="g232"
           transform="translate(443.21,505.2951)"><path
             d="m 0,0 -0.704,2.543 -1.582,5.255 -1.631,5.155 c -0.097,0.299 -0.195,0.596 -0.299,0.891 l -0.398,1.099 1.142,0.37 1.069,0.372 C -1.905,13.837 -1.346,11.922 -0.725,9.94 0.256,6.759 1.234,3.692 2.211,0.742 L 1.163,0.414 C 1.03,0.37 0.644,0.231 0,0"
             style="fill:#294b98;fill-opacity:1;fill-rule:nonzero;stroke:none"
             id="path234" /></g><g
           id="g236"
           transform="translate(451.3848,508.049)"><path
             d="m 0,0 -0.428,3.157 -1.529,9.166 -0.328,1.779 c -0.111,0.562 -0.201,0.998 -0.266,1.313 0.573,0.107 1.048,0.2 1.431,0.277 0.31,0.061 0.749,0.154 1.308,0.277 L 1.854,14.252 11.77,4.624 9.476,17.847 10.494,18.043 11.5,18.257 12.078,14.289 13.229,7.323 14.033,2.84 C 13.581,2.766 13.138,2.682 12.703,2.594 12.308,2.515 11.849,2.413 11.327,2.292 L 9.925,3.726 -0.221,13.517 c 0.059,-0.425 0.167,-1.088 0.325,-1.989 L 1.458,3.552 2.05,0.414 C 1.55,0.328 1.217,0.269 1.048,0.236 0.927,0.211 0.576,0.132 0,0"
             style="fill:#294b98;fill-opacity:1;fill-rule:nonzero;stroke:none"
             id="path238" /></g><g
           id="g240"
           transform="translate(474.9854,511.6755)"><path
             d="m 0,0 0.052,3.503 -0.061,7.252 -0.067,3.349 c -1.903,-0.101 -3.569,-0.218 -4.994,-0.35 0.015,0.61 0.012,1.149 -0.003,1.614 1.975,0.09 4.105,0.192 6.391,0.304 l 3.73,0.198 1.982,0.097 C 7.01,15.291 7.012,14.753 7.032,14.355 5.822,14.364 4.488,14.331 3.025,14.258 L 2.069,14.212 2.088,9.146 2.214,2.019 2.313,0.114 1.19,0.082 C 1.089,0.075 0.692,0.048 0,0"
             style="fill:#294b98;fill-opacity:1;fill-rule:nonzero;stroke:none"
             id="path242" /></g><g
           id="g244"
           transform="translate(486.748,511.9221)"><path
             d="m 0,0 0.65,4.26 0.997,7.981 0.18,1.74 c 0.045,0.44 0.092,0.944 0.14,1.515 1.752,-0.148 3.548,-0.295 5.386,-0.443 l 3.711,-0.284 1.186,-0.095 C 12.152,14.15 12.072,13.622 12.014,13.087 l -1.034,0.141 c -0.253,0.035 -0.692,0.081 -1.318,0.139 -0.623,0.057 -1.241,0.11 -1.853,0.16 C 5.978,13.672 4.7,13.763 3.976,13.798 L 3.321,8.485 C 4.513,8.366 5.584,8.27 6.531,8.192 7.562,8.111 8.918,8.019 10.596,7.915 10.497,7.387 10.418,6.865 10.36,6.35 L 6.357,6.704 C 5.575,6.768 4.481,6.838 3.082,6.92 L 2.403,1.31 3.613,1.202 C 5.809,1.028 7.267,0.918 7.986,0.876 8.706,0.835 9.55,0.801 10.518,0.777 10.416,0.22 10.335,-0.312 10.276,-0.821 8.409,-0.656 6.83,-0.522 5.544,-0.418 Z"
             style="fill:#294b98;fill-opacity:1;fill-rule:nonzero;stroke:none"
             id="path246" /></g><g
           id="g248"
           transform="translate(513.7236,516.7991)"><path
             d="M 0,0 C 1.307,-0.315 2.313,-0.555 3.017,-0.72 3.766,-0.896 4.611,-1.092 5.552,-1.306 4.837,-3.479 4.056,-6.126 3.21,-9.241 c -2.409,0.057 -4.427,0.278 -6.054,0.658 -1.203,0.285 -2.317,0.705 -3.343,1.269 -1.028,0.561 -1.842,1.244 -2.445,2.043 -0.605,0.799 -0.976,1.732 -1.12,2.8 -0.142,1.068 -0.079,2.147 0.189,3.237 0.303,1.237 0.828,2.345 1.577,3.324 0.749,0.98 1.649,1.738 2.702,2.275 1.053,0.537 2.161,0.837 3.331,0.898 C -0.785,7.325 0.461,7.202 1.786,6.891 3.239,6.55 4.812,5.979 6.506,5.183 6.384,4.624 6.276,4.014 6.18,3.355 5.203,3.945 4.344,4.395 3.604,4.707 2.863,5.018 2.169,5.249 1.516,5.403 0.495,5.643 -0.516,5.72 -1.512,5.638 -2.509,5.555 -3.413,5.282 -4.223,4.817 -5.032,4.353 -5.721,3.705 -6.283,2.875 -6.848,2.043 -7.251,1.143 -7.486,0.171 -7.7,-0.696 -7.762,-1.542 -7.671,-2.365 c 0.09,-0.823 0.356,-1.543 0.798,-2.156 0.441,-0.614 1.035,-1.142 1.777,-1.587 0.745,-0.445 1.589,-0.779 2.535,-1.001 0.516,-0.121 1.139,-0.219 1.874,-0.293 0.734,-0.075 1.493,-0.086 2.273,-0.036 l 1.517,5.205 -1.067,0.249 C 1.322,-1.816 0.502,-1.643 -0.432,-1.462 -0.254,-0.94 -0.11,-0.452 0,0"
             style="fill:#294b98;fill-opacity:1;fill-rule:nonzero;stroke:none"
             id="path250" /></g><g
           id="g252"
           transform="translate(522.3955,505.1716)"><path
             d="m 0,0 1.413,2.756 2.459,5.15 1.966,4.375 c 0.391,0.887 0.668,1.524 0.828,1.905 0.856,-0.364 1.57,-0.659 2.139,-0.89 0.491,-0.196 1.035,-0.407 1.633,-0.634 0.601,-0.224 1.091,-0.414 1.474,-0.568 0.668,-0.271 1.26,-0.561 1.773,-0.876 0.51,-0.313 0.916,-0.722 1.214,-1.224 0.297,-0.505 0.457,-1.013 0.48,-1.531 C 15.401,7.948 15.298,7.416 15.065,6.867 14.843,6.339 14.558,5.881 14.204,5.496 13.854,5.11 13.444,4.797 12.976,4.558 12.511,4.317 12.011,4.168 11.482,4.108 11.077,4.066 10.603,4.088 10.059,4.177 9.698,4.238 9.217,4.355 8.614,4.524 l 0.65,-3.736 0.722,-3.741 c 0.05,-0.257 0.119,-0.645 0.207,-1.157 -0.553,0.239 -0.922,0.396 -1.109,0.47 -0.2,0.082 -0.587,0.229 -1.158,0.443 L 7.757,-1.433 C 7.717,-1.087 7.674,-0.747 7.631,-0.407 7.588,-0.068 7.539,0.297 7.484,0.689 L 6.682,5.575 C 6.646,5.771 6.594,6.11 6.526,6.59 7.039,6.268 7.507,6.021 7.933,5.85 8.652,5.559 9.354,5.412 10.038,5.407 c 0.684,-0.004 1.291,0.175 1.817,0.535 0.527,0.362 0.916,0.842 1.168,1.44 0.135,0.324 0.211,0.645 0.23,0.965 0.016,0.317 -0.045,0.616 -0.185,0.896 -0.139,0.277 -0.299,0.502 -0.474,0.671 -0.178,0.172 -0.426,0.346 -0.74,0.522 -0.318,0.178 -0.665,0.341 -1.038,0.493 L 9.273,11.526 C 8.611,11.793 8.191,11.966 8.016,12.045 5.8,7.402 3.831,3.102 2.108,-0.85 l -1.05,0.449 C 0.9,-0.337 0.547,-0.205 0,0"
             style="fill:#294b98;fill-opacity:1;fill-rule:nonzero;stroke:none"
             id="path254" /></g><g
           id="g256"
           transform="translate(545.0312,503.6526)"><path
             d="M 0,0 4.495,-2.651 5.826,3.622 Z M -9.669,-3.704 -5.774,-1.409 4.333,4.729 5.559,5.528 6.715,4.833 C 7.075,4.621 7.469,4.392 7.892,4.152 L 6.668,-1.665 4.594,-12.116 3.655,-11.537 c -0.181,0.108 -0.542,0.31 -1.084,0.612 0.207,0.733 0.468,1.817 0.783,3.25 0.315,1.433 0.556,2.602 0.724,3.507 l -5.464,3.223 -3.251,-2.072 -2.93,-1.926 -1.013,0.625 c -0.169,0.097 -0.531,0.304 -1.089,0.614"
             style="fill:#294b98;fill-opacity:1;fill-rule:nonzero;stroke:none"
             id="path258" /></g><g
           id="g260"
           transform="translate(553.2715,488.7229)"><path
             d="m 0,0 c 1.41,1.409 3.084,3.172 5.019,5.291 1.937,2.115 3.808,4.231 5.617,6.347 0.412,-0.339 0.724,-0.596 0.943,-0.771 l 0.848,-0.664 -4.974,-5.37 -4.637,-5.111 1.71,-1.385 c 1.278,-1.024 2.18,-1.739 2.708,-2.146 0.53,-0.41 1.049,-0.795 1.562,-1.156 -0.349,-0.344 -0.727,-0.736 -1.132,-1.174 -1.358,1.108 -2.561,2.081 -3.61,2.92 z"
             style="fill:#294b98;fill-opacity:1;fill-rule:nonzero;stroke:none"
             id="path262" /></g><g
           id="g264"
           transform="translate(608.6992,440.3933)"><path
             d="m 0,0 c -2.294,-1.894 -5.806,-4.792 -10.431,-8.609 -4.322,-3.51 -9.57,-7.773 -15.591,-12.662 -3.025,-2.437 -6.242,-5.029 -9.631,-7.763 -3.594,-2.47 -7.371,-5.068 -11.312,-7.779 -7.904,-5.414 -16.467,-11.278 -25.524,-17.481 -9.475,-5.571 -19.482,-11.456 -29.954,-17.342 -5.142,-3.118 -10.671,-5.733 -16.286,-8.354 -5.593,-2.662 -11.253,-5.357 -16.96,-8.073 l -8.608,-4.059 -8.935,-3.48 c -5.974,-2.322 -11.971,-4.654 -17.967,-6.985 -5.954,-2.457 -12.234,-4.015 -18.371,-5.887 -6.158,-1.813 -12.29,-3.618 -18.374,-5.409 -6.201,-1.366 -12.352,-2.721 -18.429,-4.06 -3.313,-0.726 -6.597,-1.449 -9.874,-2.095 8.279,-10.167 18.022,-19.2 29.06,-26.657 17.145,-11.585 37.257,-19.496 59.334,-22.332 74.297,-9.542 142.432,41.67 152.183,114.385 C 6.867,-35.714 5.166,-17.208 0,0"
             style="fill:#f1ba06;fill-opacity:1;fill-rule:nonzero;stroke:none"
             id="path266" /></g><g
           id="g268"
           transform="translate(586.5586,424.9475)"><path
             d="m 0,0 c -0.014,0.029 -0.022,0.058 -0.038,0.082 -0.247,0.378 -0.489,0.76 -0.74,1.138 -0.293,0.439 -0.596,0.873 -0.888,1.312 -0.283,0.423 -0.559,0.849 -0.839,1.274 -0.278,0.419 -0.564,0.835 -0.841,1.256 -0.349,0.53 -0.692,1.065 -1.04,1.597 -0.33,0.508 -0.665,1.014 -0.995,1.523 -0.263,0.404 -0.514,0.816 -0.777,1.22 -0.293,0.449 -0.597,0.891 -0.893,1.341 -0.251,0.382 -0.491,0.77 -0.742,1.152 -0.321,0.491 -0.648,0.979 -0.973,1.467 -0.337,0.51 -0.678,1.016 -1.008,1.529 -0.305,0.471 -0.605,0.946 -0.894,1.426 -0.318,0.529 -0.634,1.061 -0.925,1.604 -0.316,0.59 -0.636,1.181 -0.894,1.794 -0.222,0.519 -0.362,1.071 -0.537,1.607 -0.255,0.781 -0.268,1.587 -0.271,2.391 -0.002,0.435 -0.009,0.871 0.038,1.303 0.057,0.523 0.127,1.048 0.295,1.555 0.102,0.306 0.153,0.626 0.259,0.929 0.143,0.412 0.303,0.818 0.482,1.217 0.263,0.583 0.578,1.138 0.941,1.674 0.217,0.318 0.467,0.611 0.697,0.918 0.318,0.42 0.695,0.79 1.083,1.146 0.393,0.365 0.838,0.681 1.271,1.007 0.235,0.178 0.486,0.341 0.74,0.495 0.294,0.179 0.591,0.357 0.902,0.505 0.429,0.205 0.869,0.39 1.308,0.572 0.238,0.1 0.48,0.196 0.728,0.265 0.588,0.163 1.169,0.348 1.779,0.434 0.571,0.08 1.137,0.178 1.71,0.24 0.333,0.035 0.672,0.011 1.008,0.02 0.737,0.018 1.461,-0.089 2.186,-0.196 0.572,-0.084 1.139,-0.193 1.69,-0.37 0.389,-0.125 0.783,-0.238 1.171,-0.369 0.248,-0.084 0.49,-0.19 0.729,-0.298 0.303,-0.137 0.612,-0.271 0.899,-0.435 0.435,-0.251 0.857,-0.525 1.277,-0.796 0.661,-0.423 1.223,-0.949 1.769,-1.488 0.21,-0.206 0.407,-0.424 0.585,-0.652 0.318,-0.409 0.647,-0.815 0.918,-1.251 0.324,-0.524 0.597,-1.077 0.884,-1.62 0.275,-0.519 0.504,-1.059 0.691,-1.61 0.162,-0.479 0.336,-0.953 0.482,-1.436 0.091,-0.305 0.118,-0.622 0.109,-0.942 -0.012,-0.508 0,-1.018 -0.018,-1.526 C 13.3,22.436 13.222,21.875 13.07,21.32 12.914,20.741 12.715,20.177 12.479,19.625 12.292,19.194 12.08,18.773 11.858,18.356 11.668,17.999 11.451,17.652 11.243,17.302 11.087,17.041 10.933,16.779 10.768,16.521 10.595,16.251 10.411,15.987 10.235,15.717 10.058,15.449 9.885,15.178 9.706,14.91 9.345,14.373 8.979,13.838 8.62,13.299 8.273,12.776 7.928,12.253 7.588,11.727 7.394,11.426 7.224,11.112 7.02,10.817 6.835,10.549 6.627,10.293 6.414,10.045 6.144,9.726 5.899,9.395 5.686,9.042 5.339,8.467 4.978,7.898 4.621,7.33 4.274,6.777 3.928,6.227 3.579,5.675 3.307,5.244 3.031,4.815 2.762,4.382 2.597,4.12 2.443,3.853 2.278,3.592 1.984,3.121 1.685,2.653 1.389,2.181 1.212,1.903 1.045,1.62 0.869,1.34 0.604,0.914 0.338,0.487 0.069,0.062 0.061,0.049 0.046,0.041 0,0 m 4.98,23.956 c 0.013,0.002 0.025,0.004 0.036,0.005 -0.06,0.352 -0.111,0.706 -0.184,1.056 -0.113,0.532 -0.346,1.019 -0.667,1.471 -0.372,0.525 -0.834,0.965 -1.403,1.307 -0.492,0.297 -1.018,0.505 -1.591,0.626 -0.822,0.171 -1.634,0.122 -2.44,-0.056 -0.265,-0.058 -0.516,-0.172 -0.777,-0.247 -0.504,-0.148 -0.923,-0.427 -1.309,-0.742 -0.477,-0.385 -0.834,-0.858 -1.061,-1.413 -0.15,-0.372 -0.267,-0.75 -0.276,-1.148 -0.015,-0.545 -0.007,-1.091 -0.021,-1.635 -0.013,-0.489 0.131,-0.937 0.375,-1.365 0.219,-0.384 0.479,-0.741 0.781,-1.075 0.28,-0.307 0.618,-0.554 0.974,-0.769 0.278,-0.167 0.6,-0.277 0.909,-0.393 0.529,-0.2 1.089,-0.277 1.655,-0.27 1.035,0.014 1.983,0.289 2.839,0.839 0.561,0.361 1.029,0.803 1.39,1.338 0.263,0.389 0.471,0.803 0.59,1.255 0.105,0.403 0.178,0.804 0.18,1.216"
             style="fill:#294b98;fill-opacity:1;fill-rule:nonzero;stroke:none"
             id="path270" /></g><g
           id="g272"
           transform="translate(253.7778,322.1208)"><path
             d="m 0,0 c -0.012,0.024 -0.019,0.048 -0.032,0.068 -0.206,0.317 -0.409,0.636 -0.619,0.951 -0.245,0.367 -0.497,0.73 -0.742,1.097 -0.236,0.353 -0.466,0.71 -0.701,1.064 -0.233,0.351 -0.471,0.698 -0.702,1.05 -0.293,0.443 -0.579,0.891 -0.87,1.335 -0.275,0.425 -0.556,0.847 -0.831,1.273 -0.22,0.338 -0.429,0.682 -0.65,1.019 -0.245,0.376 -0.499,0.745 -0.746,1.121 -0.209,0.319 -0.411,0.644 -0.62,0.963 -0.269,0.411 -0.542,0.817 -0.813,1.226 -0.282,0.425 -0.567,0.849 -0.842,1.277 -0.256,0.394 -0.506,0.791 -0.748,1.192 -0.266,0.442 -0.529,0.887 -0.772,1.341 -0.266,0.493 -0.532,0.986 -0.749,1.499 -0.184,0.434 -0.302,0.895 -0.448,1.343 -0.213,0.653 -0.224,1.326 -0.226,1.998 -10e-4,0.364 -0.008,0.729 0.032,1.089 0.047,0.437 0.105,0.876 0.246,1.3 0.085,0.255 0.128,0.523 0.217,0.776 0.119,0.344 0.253,0.684 0.403,1.018 0.219,0.486 0.483,0.951 0.786,1.398 0.181,0.266 0.389,0.511 0.582,0.767 0.266,0.352 0.582,0.661 0.905,0.959 0.329,0.304 0.7,0.568 1.062,0.84 0.197,0.15 0.407,0.286 0.619,0.415 0.245,0.149 0.493,0.298 0.754,0.422 0.358,0.171 0.726,0.325 1.093,0.477 0.199,0.084 0.401,0.165 0.609,0.222 0.491,0.136 0.977,0.291 1.486,0.363 0.477,0.067 0.951,0.149 1.429,0.2 0.278,0.03 0.562,0.01 0.843,0.017 0.616,0.015 1.221,-0.074 1.826,-0.163 0.478,-0.071 0.953,-0.162 1.413,-0.31 0.325,-0.105 0.655,-0.198 0.978,-0.309 0.208,-0.07 0.411,-0.158 0.609,-0.248 0.255,-0.115 0.512,-0.227 0.752,-0.364 0.363,-0.21 0.716,-0.439 1.068,-0.665 0.551,-0.353 1.021,-0.793 1.478,-1.244 0.175,-0.172 0.34,-0.354 0.489,-0.545 0.266,-0.341 0.54,-0.681 0.767,-1.045 0.271,-0.438 0.498,-0.9 0.738,-1.354 0.231,-0.434 0.421,-0.885 0.578,-1.346 0.136,-0.4 0.281,-0.796 0.403,-1.2 0.076,-0.254 0.098,-0.519 0.091,-0.787 -0.01,-0.425 0,-0.851 -0.015,-1.275 C 11.115,18.75 11.049,18.282 10.923,17.817 10.792,17.334 10.626,16.862 10.428,16.401 10.272,16.041 10.095,15.689 9.91,15.341 9.751,15.042 9.57,14.752 9.396,14.459 9.266,14.241 9.136,14.022 8.998,13.807 8.854,13.581 8.701,13.36 8.554,13.135 8.405,12.911 8.261,12.685 8.111,12.46 7.809,12.011 7.503,11.564 7.204,11.114 6.914,10.678 6.625,10.24 6.341,9.8 6.179,9.549 6.036,9.286 5.866,9.04 5.711,8.816 5.538,8.602 5.36,8.395 5.134,8.128 4.93,7.852 4.751,7.556 4.461,7.076 4.159,6.601 3.862,6.126 3.572,5.664 3.282,5.204 2.991,4.743 2.763,4.382 2.533,4.023 2.308,3.662 2.169,3.443 2.042,3.22 1.903,3.002 1.658,2.607 1.407,2.217 1.16,1.823 1.013,1.59 0.873,1.354 0.727,1.12 0.505,0.764 0.282,0.407 0.058,0.051 0.05,0.041 0.039,0.034 0,0 m 4.162,20.02 c 0.01,0.002 0.02,0.004 0.03,0.005 -0.051,0.294 -0.092,0.59 -0.154,0.882 -0.095,0.445 -0.288,0.852 -0.557,1.23 -0.312,0.438 -0.698,0.805 -1.173,1.092 -0.412,0.249 -0.85,0.422 -1.33,0.523 -0.686,0.143 -1.365,0.102 -2.039,-0.047 -0.222,-0.048 -0.431,-0.143 -0.649,-0.206 -0.421,-0.124 -0.771,-0.357 -1.095,-0.62 -0.398,-0.322 -0.696,-0.718 -0.885,-1.181 -0.126,-0.311 -0.224,-0.627 -0.232,-0.96 -0.012,-0.455 -0.006,-0.911 -0.016,-1.366 -0.012,-0.409 0.108,-0.783 0.312,-1.141 0.184,-0.321 0.4,-0.619 0.653,-0.898 0.234,-0.257 0.516,-0.464 0.814,-0.643 0.233,-0.14 0.501,-0.232 0.76,-0.329 0.442,-0.166 0.91,-0.231 1.383,-0.225 0.865,0.012 1.657,0.241 2.372,0.701 0.469,0.302 0.86,0.672 1.162,1.119 0.219,0.324 0.393,0.67 0.493,1.048 0.089,0.337 0.148,0.672 0.151,1.016"
             style="fill:#f1ba06;fill-opacity:1;fill-rule:nonzero;stroke:none"
             id="path274" /></g></g></g></g></svg>
