<svg id="Capa_1" enable-background="new 0 0 512 512" height="512" viewBox="0 0 512 512" width="512" xmlns="http://www.w3.org/2000/svg"><g id="XMLID_614_"><path id="XMLID_615_" d="m502 170.613c5.523 0 10-4.477 10-10v-40.163c0-3.938-2.311-7.51-5.904-9.123l-246-110.449c-2.604-1.17-5.587-1.17-8.191 0l-246 110.449c-3.593 1.613-5.905 5.184-5.905 9.123v40.163c0 5.523 4.477 10 10 10h20.122v321.387h-20.122c-5.523 0-10 4.478-10 10 0 5.523 4.477 10 10 10h492c5.523 0 10-4.477 10-10 0-5.522-4.477-10-10-10h-20.123v-321.387zm-80.285 20.286h-331.43v-.164c0-11.096 9.027-20.122 20.123-20.122h291.184c11.096 0 20.123 9.026 20.123 20.122zm-331.43 20h331.43v281.101h-25.715v-99.999c0-16.542-13.458-30-30-30-24.932-.001-15.827-.001-34.735 0v-100.001c0-16.542-13.458-30-30-30-27.865-.001-85.364 0-90 0-16.542 0-30 13.458-30 30v100c-5.508 0-17.522-.002-35.266 0-16.542 0-30 13.458-30 30v100h-25.714zm45.715 281.101v-100c0-5.514 4.486-10 10-10h9.898v60.02c0 8.364 9.706 13.043 16.247 7.809l18.856-15.084 18.855 15.084c6.533 5.225 16.247.566 16.247-7.809v-60.02h19.897v110zm70.102-110v39.214l-8.854-7.084c-3.653-2.922-8.842-2.923-12.494 0l-8.856 7.084v-39.214zm65.265-129.999v39.214l-8.854-7.084c-3.653-2.923-8.842-2.923-12.494 0l-8.856 7.084v-39.214zm-33.957 67.828 18.856-15.084 18.854 15.084c6.533 5.225 16.247.566 16.247-7.809v-60.019h9.898c5.514 0 10 4.486 10 10v100.001c-41.258 0-85.561-.001-110-.001v-100.001c0-5.514 4.486-10 10-10h9.898v60.019c0 8.367 9.706 13.042 16.247 7.81zm68.488 62.172h30.204v39.214l-8.854-7.084c-3.653-2.922-8.842-2.923-12.494 0l-8.855 7.084v-39.214zm-39.898 0h19.898v60.02c0 8.402 9.733 13.019 16.247 7.809l18.855-15.084 18.854 15.084c6.534 5.225 16.247.566 16.247-7.809v-60.02h9.899c5.514 0 10 4.486 10 10v99.999h-110zm175.715 109.999v-301.265c0-22.123-17.999-40.122-40.123-40.122h-291.184c-22.124 0-40.123 17.999-40.123 40.122v301.265h-20.163v-331.387c0-5.522-4.477-10-10-10h-20.122v-23.691l236-105.96 236 105.959v23.691h-20.123c-5.523 0-10 4.478-10 10v331.388z"/><path id="XMLID_626_" d="m350.5 95.001h-189c-5.523 0-10 4.477-10 10 0 5.522 4.477 10 10 10h189c5.523 0 10-4.478 10-10 0-5.523-4.477-10-10-10z"/></g></svg>